<?xml version="1.0" encoding="utf-8"?>
<!-- Generator: Adobe Illustrator 23.0.2, SVG Export Plug-In . SVG Version: 6.00 Build 0)  -->
<svg version="1.1" id="Capa_1" xmlns="http://www.w3.org/2000/svg" xmlns:xlink="http://www.w3.org/1999/xlink" x="0px" y="0px"
	 viewBox="0 0 351.5 270.8" style="enable-background:new 0 0 351.5 270.8;" xml:space="preserve">
<style type="text/css">
	.st0{font-family:'Arial-BoldMT';}
	.st1{font-size:41.89px;}
	.st2{fill:none;stroke:#FFFFFF;stroke-width:2.83;stroke-miterlimit:5;}
	.st3{fill:#FFFFFF;}
	.st4{font-family:'ArialMT';}
	.st5{font-size:17.34px;}
	.st6{font-size:19.96px;}
	.st7{letter-spacing:-1;}
</style>
<title>fotographic2019_cuadrado</title>
<path d="M351.3,183.8c0-26.2,0-52.4,0-78.6c0-90.7-40.7-46.1-86.9-68.3C247,28.4,241.6,12,220.3,4.7c-16.3-5.6-55.3-5.6-72.6-3.3
	c-27.3,3.6-29.2,13.5-47.3,28.9C63.6,61.7,5.4,16.7,1.3,86.4C-1.5,135.1,1,191.7,1.1,241.3c0.1,38.9,101.6,28.2,126.2,28.2
	c51.8,0,103.5,0,155.2,0C358.9,269.5,351.3,254.1,351.3,183.8z M175.8,226.8c-34.1,0-61.6-28.4-60-62.9
	c1.4-30.8,26.4-55.8,57.2-57.2c34.5-1.6,62.9,25.9,62.9,60v0C235.9,199.9,209,226.8,175.8,226.8L175.8,226.8L175.8,226.8z
	 M323.2,86.6c-12.5,5.9-25-10.5-11.2-19.5C326.7,57.4,336,80.6,323.2,86.6z"/>
<circle cx="184.5" cy="134.9" r="6.8"/>
<polygon points="148.4,138.7 148.4,138.6 148.4,134.1 137,131.5 137,138.6 137,138.7 137,145.7 148.4,143.2 "/>
<path d="M185.4,203.2l-12.9-56.7v-2.2h2.3v-11.1h-9.1v1.9h-15.2v7.3h15.2v1.9h3.1v0.1l-23.6,58.6l0,0c-0.3,0.8,0.1,1.7,0.9,1.9
	c0.7,0.3,1.6-0.1,1.9-0.8c0-0.1,0.1-0.2,0.1-0.2l21.2-52.7v52.6l0,0c-0.1,0.8,0.4,1.6,1.3,1.7c0.8,0.1,1.6-0.4,1.7-1.3
	c0-0.2,0-0.3,0-0.5c0-0.1,0-0.2,0-0.2v-43.3l10,44l0,0c0.2,0.8,1,1.4,1.8,1.2c0.8-0.2,1.4-1,1.2-1.8
	C185.4,203.4,185.4,203.3,185.4,203.2z"/>
<path d="M212.9,154.8l-14-14c-1.1-1.2-2.7-1.9-4.4-1.8c-2.7,0-4.3,0.9-5.3,3.9l-3.3,11.3l-4.6-6.6c-0.6-0.6-1.5-1-2.4-0.9
	c-1.8,0-3.2,1.4-3.2,3.2c0,0,0,0,0,0.1c0,0.5,0.1,1,0.3,1.4l8.1,11.6c0.6,1.1,1.8,1.9,3.1,2c1.3,0,2.5-0.8,3-2l0,0l2.4-8.4
	l10.9,10.9v34.1c0,3,2.4,5.4,5.5,5.4c3,0,5.4-2.4,5.4-5.4v-42c0-0.7-0.3-1.4-0.8-1.9L212.9,154.8z"/>
<text transform="matrix(1 0 0 1 36.41 87.88)" class="st0 st1">FO</text>
<text transform="matrix(1 0 0 1 36.41 87.88)" class="st2 st0 st1">FO</text>
<text transform="matrix(1 0 0 1 94.58 87.88)" class="st0 st1">T</text>
<text transform="matrix(1 0 0 1 94.58 87.88)" class="st2 st0 st1">T</text>
<text transform="matrix(1 0 0 1 119.41 87.88)" class="st0 st1">O</text>
<text transform="matrix(1 0 0 1 119.41 87.88)" class="st2 st0 st1">O</text>
<text transform="matrix(1 0 0 1 152.14 87.88)" class="st3 st4 st1">Graphic</text>
<text transform="matrix(1 0 0 1 154.61 30.41)" class="st3 st0 st5">2019</text>
<text transform="matrix(1 0 0 1 103.59 256.28)" class="st3 st4 st6">Parets del </text>
<text transform="matrix(1 0 0 1 199.01 256.28)" class="st3 st4 st6 st7">V</text>
<text transform="matrix(1 0 0 1 210.84 256.28)" class="st3 st4 st6">allès</text>
</svg>
