<svg id="Capa_1" data-name="Capa 1" xmlns="http://www.w3.org/2000/svg" viewBox="0 0 351.53 270.83"><title>fotographic2019_cuadrado_negro</title><path d="M234,68.55a5.27,5.27,0,0,0-4.16,2.2c-1.21,1.46-1.81,3.6-1.81,6.39s.56,4.86,1.69,6.2a5.2,5.2,0,0,0,4.12,2,5.34,5.34,0,0,0,4.2-2.07c1.16-1.39,1.75-3.53,1.75-6.44s-.57-4.84-1.71-6.21A5.14,5.14,0,0,0,234,68.55ZM43,73.72H55.54V71.48H43V61.55h14.5V59.31H39.8V86.46H43ZM351.33,183.79q0-39.3,0-78.59c0-90.7-40.72-46.12-86.86-68.34C247,28.42,241.61,12,220.34,4.71,204.06-.84,165-.86,147.76,1.45,120.42,5.1,118.6,14.9,100.42,30.38,63.6,61.72,5.36,16.75,1.34,86.41-1.47,135.17,1,191.72,1.07,241.29c.06,38.9,101.62,28.19,126.23,28.19q77.63,0,155.25,0C358.84,269.52,351.33,254.12,351.33,183.79ZM214.28,70a6.17,6.17,0,0,0-4.19-1.25,6.59,6.59,0,0,0-3.84.91,5.62,5.62,0,0,0-1.83,3.23l-3.6-.5a9,9,0,0,1,1.62-3.73,7,7,0,0,1,3.25-2.19,14.55,14.55,0,0,1,4.93-.76,13,13,0,0,1,4.52.65A6,6,0,0,1,217.7,68a5.83,5.83,0,0,1,1.14,2.5,20.91,20.91,0,0,1,.19,3.4v4.91a51.84,51.84,0,0,0,.23,6.49,8.33,8.33,0,0,0,.93,2.61h-3.84a7.65,7.65,0,0,1-.74-2.68,13.49,13.49,0,0,1-3.94,2.45,11.3,11.3,0,0,1-4.06.72,7.88,7.88,0,0,1-5.5-1.75,5.76,5.76,0,0,1-1.92-4.47,6,6,0,0,1,2.63-5,9.11,9.11,0,0,1,2.64-1.21,27.52,27.52,0,0,1,3.28-.55,33.24,33.24,0,0,0,6.56-1.27c0-.5,0-.82,0-1A4.08,4.08,0,0,0,214.28,70ZM190.5,19.84a3.8,3.8,0,0,1,1.6-1.53,5.67,5.67,0,0,1,2.58-.52,6,6,0,0,1,3,.64,4.45,4.45,0,0,1,1.8,2,8.49,8.49,0,0,1,.67,3.68q0,3.36-1.41,4.92a5,5,0,0,1-3.92,1.56,6.43,6.43,0,0,1-2.34-.34,3.56,3.56,0,0,1-1.42-1,4.68,4.68,0,0,1-.88-1.66l3.43-.43a1.87,1.87,0,0,0,.46,1,1.11,1.11,0,0,0,.79.3,1.43,1.43,0,0,0,1.29-.84,7.72,7.72,0,0,0,.51-2.62,4.26,4.26,0,0,1-1.27.93,3.57,3.57,0,0,1-1.51.3,3.75,3.75,0,0,1-2.81-1.19,4.11,4.11,0,0,1-1.15-3A4.46,4.46,0,0,1,190.5,19.84Zm-3.06,46.32h3.32v3.29a8.88,8.88,0,0,1,2.34-3,4.09,4.09,0,0,1,2.36-.73,7.2,7.2,0,0,1,3.79,1.18L198,70.27a5.29,5.29,0,0,0-2.7-.8,3.47,3.47,0,0,0-2.17.73,3.89,3.89,0,0,0-1.37,2,14.32,14.32,0,0,0-.61,4.3V87.88h-3.69Zm-8.28-45a8.26,8.26,0,0,0,2.73-1.36,5.57,5.57,0,0,0,1.53-2h2.85V30.41h-3.49V22.14a10.56,10.56,0,0,1-1.64,1,12.52,12.52,0,0,1-2,.76Zm-11-1.91a5,5,0,0,1,3.88-1.41,5.92,5.92,0,0,1,2,.3,3.89,3.89,0,0,1,1.32.81,4.46,4.46,0,0,1,.8,1,5.61,5.61,0,0,1,.47,1.28,11.91,11.91,0,0,1,.34,2.89,8.53,8.53,0,0,1-1.14,4.95c-.76,1-2.07,1.56-3.94,1.56a5.58,5.58,0,0,1-2.53-.5,4.09,4.09,0,0,1-1.58-1.46,5.65,5.65,0,0,1-.7-1.88,12.56,12.56,0,0,1-.25-2.63Q166.89,20.61,168.17,19.2Zm-6.69,1.35a1.46,1.46,0,0,0-1.06-.4,1.49,1.49,0,0,0-1.08.41,2.59,2.59,0,0,0-.56,1.47l-3.45-.28a5.41,5.41,0,0,1,.74-2.27,3.42,3.42,0,0,1,1.53-1.26,7,7,0,0,1,2.73-.43,7.63,7.63,0,0,1,2.83.41,3.37,3.37,0,0,1,1.59,1.28,3.32,3.32,0,0,1,.58,1.92,4,4,0,0,1-.66,2.17,9.29,9.29,0,0,1-2.42,2.27c-.69.48-1.16.81-1.39,1s-.51.44-.83.75h5.39v2.81H155.07a6.51,6.51,0,0,1,1.08-2.88,14.48,14.48,0,0,1,3.38-3.19,10,10,0,0,0,1.94-1.71,2,2,0,0,0,.43-1.11A1.3,1.3,0,0,0,161.48,20.55ZM156.2,64.86a12.21,12.21,0,0,1,5.27-5.64,16.58,16.58,0,0,1,7.91-1.84,15.51,15.51,0,0,1,5.88,1.06,9.77,9.77,0,0,1,4.13,2.93,13.16,13.16,0,0,1,2.27,4.91l-3.58,1a11,11,0,0,0-1.68-3.6,6.86,6.86,0,0,0-2.86-2.09,10.46,10.46,0,0,0-4.14-.79,12,12,0,0,0-4.7.83,8.74,8.74,0,0,0-3.2,2.17,10.39,10.39,0,0,0-1.89,3,15.57,15.57,0,0,0-1.15,6,14.63,14.63,0,0,0,1.38,6.71,8.82,8.82,0,0,0,4,4,12.5,12.5,0,0,0,5.61,1.31,13.37,13.37,0,0,0,5-1,13.09,13.09,0,0,0,3.72-2.12V76.12H169.4V72.6l12.71,0V83.71a22.48,22.48,0,0,1-6,3.5,17.76,17.76,0,0,1-6.38,1.18,17,17,0,0,1-8-1.89A12.58,12.58,0,0,1,156.21,81a17.23,17.23,0,0,1-1.84-8A18.55,18.55,0,0,1,156.2,64.86Zm-32.94-4.58a13.1,13.1,0,0,1,4.35-3,17.92,17.92,0,0,1,7-1.3c4.8,0,8.71,1.53,11.62,4.55s4.38,7.18,4.38,12.42-1.46,9.35-4.34,12.34-6.79,4.54-11.58,4.54-8.76-1.52-11.65-4.51-4.35-7.1-4.35-12.23a20.5,20.5,0,0,1,1.49-8.26A15.64,15.64,0,0,1,123.26,60.28Zm-62.9,4.1H45.86v4.27H58.37v7.9H45.86V89.3H37V56.48H60.36Zm28.5,20.89c-2.89,3-6.79,4.54-11.57,4.54s-8.76-1.52-11.66-4.51-4.34-7.1-4.34-12.23a20.5,20.5,0,0,1,1.49-8.26,15.64,15.64,0,0,1,3.07-4.53,13.1,13.1,0,0,1,4.35-3,17.88,17.88,0,0,1,7-1.3,15.49,15.49,0,0,1,11.62,4.55c2.9,3,4.38,7.18,4.38,12.42S91.74,82.28,88.86,85.27ZM93,64.38v-7.9h26.66v7.9h-8.87V89.3h-8.89V64.38Zm21.93,184.83c-.77.84-2.17,1.26-4.19,1.26H107v5.81h-1.89V242h5.39a13.12,13.12,0,0,1,2.18.14,4.29,4.29,0,0,1,1.76.67,3.58,3.58,0,0,1,1.15,1.38,4.5,4.5,0,0,1,.43,1.95A4.4,4.4,0,0,1,114.88,249.21Zm10.45,7.07A3.7,3.7,0,0,1,125,255a6.68,6.68,0,0,1-1.88,1.17,5.59,5.59,0,0,1-1.93.34,3.78,3.78,0,0,1-2.63-.84,2.73,2.73,0,0,1-.91-2.13,2.86,2.86,0,0,1,.34-1.39,3,3,0,0,1,.91-1,4.15,4.15,0,0,1,1.26-.58,12.37,12.37,0,0,1,1.56-.26,15.56,15.56,0,0,0,3.13-.61c0-.24,0-.39,0-.45a1.93,1.93,0,0,0-.5-1.52,2.94,2.94,0,0,0-2-.59,3.09,3.09,0,0,0-1.83.43,2.65,2.65,0,0,0-.87,1.54l-1.72-.23a4.23,4.23,0,0,1,.77-1.78,3.36,3.36,0,0,1,1.55-1.05,7,7,0,0,1,2.35-.36,6.15,6.15,0,0,1,2.15.31,2.86,2.86,0,0,1,1.22.78,2.89,2.89,0,0,1,.55,1.2,10,10,0,0,1,.08,1.62V252a23.1,23.1,0,0,0,.12,3.09,3.76,3.76,0,0,0,.44,1.24Zm-9.64-89.57a60.08,60.08,0,1,1,60.08,60.07A60.08,60.08,0,0,1,115.69,166.71Zm120.5,75.21,1.31,2.72h-1.41l-2.25-2.72Zm-101.87,6a2.52,2.52,0,0,0-1.28-.38,1.69,1.69,0,0,0-1,.35,1.9,1.9,0,0,0-.65,1,6.93,6.93,0,0,0-.29,2v5.42h-1.75V245.93h1.57v1.57a4.38,4.38,0,0,1,1.12-1.45,1.91,1.91,0,0,1,1.13-.35,3.47,3.47,0,0,1,1.8.56Zm10.6,3.66H137.2a4,4,0,0,0,1,2.62,2.89,2.89,0,0,0,2.17.9,2.76,2.76,0,0,0,1.65-.5,3.44,3.44,0,0,0,1.08-1.62l1.81.22a4.44,4.44,0,0,1-1.59,2.47,4.8,4.8,0,0,1-3,.88,4.74,4.74,0,0,1-3.6-1.4,5.45,5.45,0,0,1-1.33-3.93,5.74,5.74,0,0,1,1.34-4.05,4.56,4.56,0,0,1,3.49-1.44,4.42,4.42,0,0,1,3.39,1.41,5.61,5.61,0,0,1,1.32,4C144.93,251.19,144.93,251.35,144.92,251.55Zm4.91,4.87a3,3,0,0,1-1.48-.3,1.68,1.68,0,0,1-.74-.8,6.33,6.33,0,0,1-.22-2.07V247.3h-1.28v-1.37h1.28v-2.56l1.75-1.05v3.61h1.76v1.37h-1.76v6a3.09,3.09,0,0,0,.09,1,.66.66,0,0,0,.3.34,1.11,1.11,0,0,0,.6.13,5.05,5.05,0,0,0,.77-.07l.26,1.55A6.22,6.22,0,0,1,149.83,256.42ZM160,254.89a3.24,3.24,0,0,1-1.48,1.2,5.24,5.24,0,0,1-2.18.43,4.84,4.84,0,0,1-3.07-.84,3.86,3.86,0,0,1-1.35-2.49l1.73-.27a2.41,2.41,0,0,0,.82,1.6,2.81,2.81,0,0,0,1.86.55,2.74,2.74,0,0,0,1.8-.49,1.49,1.49,0,0,0,.58-1.15,1.06,1.06,0,0,0-.52-.94,7.81,7.81,0,0,0-1.79-.59,16.5,16.5,0,0,1-2.68-.85,2.59,2.59,0,0,1-1.13-1,2.66,2.66,0,0,1-.38-1.39,2.56,2.56,0,0,1,.32-1.28,2.79,2.79,0,0,1,.86-1,3.6,3.6,0,0,1,1.11-.51,5.37,5.37,0,0,1,1.52-.21,5.86,5.86,0,0,1,2.14.35,2.89,2.89,0,0,1,1.36.95,3.72,3.72,0,0,1,.6,1.6l-1.71.24a1.89,1.89,0,0,0-.68-1.25,2.46,2.46,0,0,0-1.58-.45,2.86,2.86,0,0,0-1.73.4,1.18,1.18,0,0,0-.51.94,1,1,0,0,0,.21.61,1.6,1.6,0,0,0,.67.47l1.55.45a21.83,21.83,0,0,1,2.6.81,2.64,2.64,0,0,1,1.15.92,2.55,2.55,0,0,1,.42,1.5A2.92,2.92,0,0,1,160,254.89Zm16.49,1.39h-1.63V255a3.23,3.23,0,0,1-2.89,1.54,4,4,0,0,1-2.28-.69,4.49,4.49,0,0,1-1.61-1.9,6.59,6.59,0,0,1-.57-2.81,7.3,7.3,0,0,1,.52-2.82,4,4,0,0,1,1.55-1.93,4.13,4.13,0,0,1,2.31-.67,3.45,3.45,0,0,1,1.66.39,3.52,3.52,0,0,1,1.19,1V242h1.75Zm11.7-4.73h-7.72a4,4,0,0,0,1,2.62,2.88,2.88,0,0,0,2.16.9,2.72,2.72,0,0,0,1.65-.5,3.37,3.37,0,0,0,1.08-1.62l1.81.22a4.42,4.42,0,0,1-1.58,2.47,4.83,4.83,0,0,1-3,.88,4.75,4.75,0,0,1-3.6-1.4,5.45,5.45,0,0,1-1.33-3.93,5.69,5.69,0,0,1,1.35-4.05,4.55,4.55,0,0,1,3.49-1.44,4.44,4.44,0,0,1,3.39,1.41,5.65,5.65,0,0,1,1.31,4C188.2,251.19,188.2,251.35,188.19,251.55Zm3.87,4.73h-1.75V242h1.75Zm12.58,0L199.1,242h2.05l3.71,10.38q.45,1.26.75,2.34c.22-.78.48-1.56.77-2.34L210.24,242h1.93l-5.59,14.29Zm14.63,0a3.49,3.49,0,0,1-.35-1.27,6.82,6.82,0,0,1-1.88,1.17,5.61,5.61,0,0,1-1.94.34,3.75,3.75,0,0,1-2.62-.84,2.73,2.73,0,0,1-.91-2.13,2.86,2.86,0,0,1,.34-1.39,2.83,2.83,0,0,1,.91-1,4,4,0,0,1,1.26-.58,12.05,12.05,0,0,1,1.56-.26,15.56,15.56,0,0,0,3.13-.61c0-.24,0-.39,0-.45a2,2,0,0,0-.5-1.52,3,3,0,0,0-2-.59,3.07,3.07,0,0,0-1.82.43,2.66,2.66,0,0,0-.88,1.54l-1.71-.23a4.11,4.11,0,0,1,.77-1.78,3.36,3.36,0,0,1,1.55-1.05,7,7,0,0,1,2.35-.36,6.15,6.15,0,0,1,2.15.31,2.92,2.92,0,0,1,1.22.78,2.89,2.89,0,0,1,.55,1.2,11.35,11.35,0,0,1,.08,1.62V252a25.93,25.93,0,0,0,.11,3.09,4,4,0,0,0,.45,1.24Zm5.71,0h-1.76V242H225Zm4.43,0h-1.75V242h1.75Zm11.67-4.73h-7.72a4,4,0,0,0,1,2.62,2.89,2.89,0,0,0,2.17.9,2.76,2.76,0,0,0,1.65-.5,3.44,3.44,0,0,0,1.08-1.62l1.81.22a4.49,4.49,0,0,1-1.59,2.47,4.8,4.8,0,0,1-3,.88,4.72,4.72,0,0,1-3.6-1.4,5.45,5.45,0,0,1-1.33-3.93,5.69,5.69,0,0,1,1.34-4.05,4.56,4.56,0,0,1,3.49-1.44,4.42,4.42,0,0,1,3.39,1.41,5.61,5.61,0,0,1,1.32,4C241.09,251.19,241.09,251.35,241.08,251.55ZM238.92,87a8.91,8.91,0,0,1-4.8,1.42,6.87,6.87,0,0,1-3.3-.78,7.55,7.55,0,0,1-2.41-2V96.2h-3.68v-30h3.36V69a8.37,8.37,0,0,1,2.68-2.49,7.37,7.37,0,0,1,3.62-.82,8.56,8.56,0,0,1,4.91,1.43,8.85,8.85,0,0,1,3.21,4,14.78,14.78,0,0,1,1.08,5.71,14.49,14.49,0,0,1-1.2,6A9,9,0,0,1,238.92,87Zm11.7,167.94a3.35,3.35,0,0,1-1.48,1.2,5.24,5.24,0,0,1-2.18.43,4.87,4.87,0,0,1-3.08-.84,4,4,0,0,1-1.35-2.49l1.74-.27a2.36,2.36,0,0,0,.81,1.6,2.84,2.84,0,0,0,1.87.55,2.73,2.73,0,0,0,1.79-.49,1.46,1.46,0,0,0,.58-1.15,1.07,1.07,0,0,0-.51-.94,8,8,0,0,0-1.8-.59,16.64,16.64,0,0,1-2.67-.85,2.48,2.48,0,0,1-1.13-1,2.58,2.58,0,0,1-.39-1.39,2.67,2.67,0,0,1,.32-1.28,2.89,2.89,0,0,1,.86-1,3.78,3.78,0,0,1,1.12-.51,5.25,5.25,0,0,1,1.51-.21,5.82,5.82,0,0,1,2.14.35,2.84,2.84,0,0,1,1.36.95,3.6,3.6,0,0,1,.61,1.6l-1.72.24a1.85,1.85,0,0,0-.68-1.25,2.46,2.46,0,0,0-1.58-.45,2.81,2.81,0,0,0-1.72.4,1.16,1.16,0,0,0-.52.94,1,1,0,0,0,.21.61,1.64,1.64,0,0,0,.68.47c.17.06.69.21,1.55.45a21.51,21.51,0,0,1,2.59.81,2.67,2.67,0,0,1,1.16.92,2.55,2.55,0,0,1,.42,1.5A2.92,2.92,0,0,1,250.62,254.89Zm15.1-167H262V74.11a5.68,5.68,0,0,0-1.2-4,4.45,4.45,0,0,0-3.38-1.25,5.94,5.94,0,0,0-3.08.85,4.78,4.78,0,0,0-2.06,2.3,10.72,10.72,0,0,0-.61,4V87.88H248v-30h3.68V68.65a8.23,8.23,0,0,1,6.51-3,8.72,8.72,0,0,1,4.19,1A5.64,5.64,0,0,1,265,69.25a12.11,12.11,0,0,1,.76,4.86Zm9.31,0h-3.68V66.16H275Zm0-25.75h-3.68V57.89H275Zm20.36,24.12a8.85,8.85,0,0,1-6,2.12,9.33,9.33,0,0,1-7.17-2.91c-1.81-1.95-2.71-4.73-2.71-8.36a15.25,15.25,0,0,1,1.16-6.16,8.07,8.07,0,0,1,3.55-4,10.54,10.54,0,0,1,5.19-1.32,9,9,0,0,1,5.79,1.79,8.16,8.16,0,0,1,2.88,5.08l-3.58.55a5.88,5.88,0,0,0-1.81-3.29,4.67,4.67,0,0,0-3.14-1.11,5.72,5.72,0,0,0-4.52,2q-1.74,2-1.74,6.31T285,83.36a5.47,5.47,0,0,0,4.38,2A5.15,5.15,0,0,0,293,84a6.63,6.63,0,0,0,1.84-4.09l3.62.47A9.4,9.4,0,0,1,295.39,86.25Zm27.85.39c-12.47,5.86-25-10.48-11.25-19.53C326.73,57.38,336,80.65,323.24,86.64ZM194.83,24.14a1.54,1.54,0,0,0,1.21-.53,2.18,2.18,0,0,0,.48-1.52,2.34,2.34,0,0,0-.5-1.58,1.61,1.61,0,0,0-1.24-.57,1.45,1.45,0,0,0-1.14.51,2.31,2.31,0,0,0-.45,1.55,2.38,2.38,0,0,0,.47,1.59A1.46,1.46,0,0,0,194.83,24.14ZM77.27,64a6.3,6.3,0,0,0-5,2.1c-1.28,1.43-1.93,3.72-1.93,6.8s.67,5.3,2,6.77a6.27,6.27,0,0,0,4.92,2.16,6.2,6.2,0,0,0,4.88-2.13c1.3-1.47,2-3.78,2-6.89s-.64-5.33-1.9-6.74A6.22,6.22,0,0,0,77.27,64ZM134.7,87c4,0,7.16-1.2,9.53-3.66s3.56-5.94,3.56-10.38-1.21-8-3.58-10.45-5.54-3.68-9.59-3.68a15.17,15.17,0,0,0-5.91,1.07,10.43,10.43,0,0,0-3.41,2.39,12.58,12.58,0,0,0-2.52,3.7,17.86,17.86,0,0,0-1.25,7.11c0,4.37,1.2,7.82,3.55,10.25S130.6,87,134.7,87Zm-7.11-22.79a9.79,9.79,0,0,1,14.15,0c1.74,1.95,2.62,4.86,2.62,8.63s-.9,6.77-2.68,8.77h0a9,9,0,0,1-7,3.08,9.06,9.06,0,0,1-7-3.1c-1.8-2-2.71-4.92-2.71-8.66S125.83,66.15,127.59,64.18Zm7.09,17.62a6.18,6.18,0,0,0,4.88-2.13c1.31-1.47,2-3.78,2-6.89s-.64-5.33-1.9-6.74a7,7,0,0,0-9.93,0c-1.28,1.43-1.93,3.72-1.93,6.8s.67,5.3,2,6.77A6.27,6.27,0,0,0,134.68,81.8ZM172,28.27a1.26,1.26,0,0,0,.91-.37,2.33,2.33,0,0,0,.56-1.16,12.45,12.45,0,0,0,.18-2.49,8.72,8.72,0,0,0-.41-3.32,1.34,1.34,0,0,0-1.26-.85,1.29,1.29,0,0,0-1.24.87,9.2,9.2,0,0,0-.38,3.21,8.42,8.42,0,0,0,.42,3.24A1.32,1.32,0,0,0,172,28.27ZM214.37,252.1a1.5,1.5,0,0,0-.69.57,1.53,1.53,0,0,0-.24.84,1.46,1.46,0,0,0,.53,1.16,2.23,2.23,0,0,0,1.55.47,3.7,3.7,0,0,0,1.81-.44,2.82,2.82,0,0,0,1.16-1.21,4.44,4.44,0,0,0,.28-1.76v-.64a12.79,12.79,0,0,1-2.87.66A6.46,6.46,0,0,0,214.37,252.1Zm22-5a2.77,2.77,0,0,0-2,.81,3.16,3.16,0,0,0-.91,2.16h5.78a3.49,3.49,0,0,0-.67-2A2.7,2.7,0,0,0,236.4,247.14ZM184.49,141.63a6.75,6.75,0,1,0-6.75-6.74A6.75,6.75,0,0,0,184.49,141.63ZM172.05,247.15a2.43,2.43,0,0,0-2,.95,4.77,4.77,0,0,0-.79,3,4.5,4.5,0,0,0,.84,3,2.52,2.52,0,0,0,2,1,2.48,2.48,0,0,0,2-.94,4.35,4.35,0,0,0,.8-2.87,4.87,4.87,0,0,0-.82-3.12A2.53,2.53,0,0,0,172.05,247.15Zm-51.61,4.95a1.58,1.58,0,0,0-.7.57,1.53,1.53,0,0,0-.24.84,1.5,1.5,0,0,0,.53,1.16,2.26,2.26,0,0,0,1.56.47,3.69,3.69,0,0,0,1.8-.44,2.76,2.76,0,0,0,1.16-1.21,4.27,4.27,0,0,0,.28-1.76v-.64a12.82,12.82,0,0,1-2.86.66A6.21,6.21,0,0,0,120.44,252.1Zm63.73-89.22a3.86,3.86,0,0,0,3.06,2,3.25,3.25,0,0,0,3-2h0l2.45-8.41,10.94,10.95v34.13a5.45,5.45,0,0,0,10.9,0v-42a2.74,2.74,0,0,0-.77-1.9l-.82-.82-14-14a5.47,5.47,0,0,0-4.37-1.83c-2.73,0-4.33.87-5.29,3.85L186,154.11l-4.59-6.58a3.31,3.31,0,0,0-2.36-.94,3.22,3.22,0,0,0-3.25,3.25,3,3,0,0,0,.27,1.42Zm-18.45-18.67h3.16l0,.14-23.61,58.58h0a1.52,1.52,0,0,0,2.82,1.13,1.82,1.82,0,0,0,.07-.25l21.25-52.74v52.61h0a1.52,1.52,0,1,0,3,0,2.11,2.11,0,0,0,0-.25V160.15l10,43.95h0a1.52,1.52,0,1,0,3-.67,2.25,2.25,0,0,0-.08-.24l-12.9-56.72v-2.25h2.32V133.08h-9.11V135H150.55v7.28h15.17Zm-17.28-10.08L137,131.54v14.2l11.41-2.58ZM104.68,86.46h3.22V61.55h8.88V59.31h-21v2.24h8.9ZM77.21,58.8a15.26,15.26,0,0,0-5.92,1.07,10.53,10.53,0,0,0-3.41,2.39A12.55,12.55,0,0,0,65.37,66a17.69,17.69,0,0,0-1.25,7.11c0,4.37,1.19,7.82,3.55,10.25S73.19,87,77.29,87s7.16-1.2,9.53-3.66,3.55-5.94,3.55-10.38-1.2-8-3.58-10.45S81.26,58.8,77.21,58.8Zm7.06,22.75a9.51,9.51,0,0,1-14,0c-1.8-2-2.72-4.92-2.72-8.66s.9-6.72,2.66-8.69a9.79,9.79,0,0,1,14.15,0C86.07,66.1,87,69,87,72.78S86.05,79.55,84.27,81.55Zm56,165.59a2.77,2.77,0,0,0-2,.81,3.2,3.2,0,0,0-.91,2.16h5.78a3.49,3.49,0,0,0-.67-2A2.7,2.7,0,0,0,140.24,247.14Zm43.27,0a2.79,2.79,0,0,0-2,.81,3.2,3.2,0,0,0-.91,2.16h5.78a3.57,3.57,0,0,0-.66-2A2.7,2.7,0,0,0,183.51,247.14Zm22.57-168a3.26,3.26,0,0,0-1.45,1.2,3.18,3.18,0,0,0-.52,1.75,3.14,3.14,0,0,0,1.12,2.45,4.76,4.76,0,0,0,3.26,1,7.63,7.63,0,0,0,3.79-.93A5.8,5.8,0,0,0,214.71,82a9,9,0,0,0,.59-3.68V77a27.13,27.13,0,0,1-6,1.39A14.31,14.31,0,0,0,206.08,79.1ZM112.44,243.81a7.63,7.63,0,0,0-1.76-.13H107v5.11h3.7a3.88,3.88,0,0,0,2.6-.69,2.43,2.43,0,0,0,.77-1.92,2.61,2.61,0,0,0-.45-1.53A2.05,2.05,0,0,0,112.44,243.81Z"/></svg>