<svg id="Capa_1" data-name="Capa 1" xmlns="http://www.w3.org/2000/svg" viewBox="0 0 2019.22 334.53"><defs><style>.cls-1{font-size:252.61px;font-family:ArialMT, Arial;}.cls-2{font-size:76.32px;font-family:Arial-Black, Arial Black;font-weight:800;}</style></defs><title>fotographic2019_rectangular_negro</title><path d="M351.33,183.79q0-39.3,0-78.59c0-90.7-40.72-46.12-86.86-68.34C247,28.42,241.61,12,220.34,4.71,204.06-.84,165-.86,147.76,1.45,120.42,5.1,118.6,14.9,100.42,30.38,63.6,61.72,5.36,16.75,1.34,86.41-1.47,135.17,1,191.72,1.07,241.29c.06,38.9,101.62,28.19,126.23,28.19q77.63,0,155.25,0C358.84,269.52,351.33,254.12,351.33,183.79ZM175.77,261.58a94.88,94.88,0,1,1,94.87-94.87A94.87,94.87,0,0,1,175.77,261.58ZM323.24,86.64c-12.47,5.86-25-10.48-11.25-19.53C326.73,57.38,336,80.65,323.24,86.64Z"/><circle cx="189.55" cy="116.41" r="10.66" transform="translate(-16.2 31.87) rotate(-9.22)"/><polygon points="132.58 122.43 132.58 122.27 132.58 115.21 114.54 111.13 114.54 122.31 114.54 122.39 114.54 133.57 132.58 129.49 132.58 122.43"/><path d="M191,224.35l-20.38-89.64v-3.56h3.67v-17.6H159.87v3h-24v11.52h24v3h5l.05.22L127.62,224h0a2.4,2.4,0,1,0,4.45,1.79,2.85,2.85,0,0,0,.11-.39L165.81,142v83.14h0a2.4,2.4,0,1,0,4.8,0,2.71,2.71,0,0,0,0-.4V156.34l15.8,69.47h0a2.4,2.4,0,1,0,4.67-1.07A1.71,1.71,0,0,0,191,224.35Z"/><path d="M234.51,147.9l-22.13-22.14c-2.42-2.27-4.07-2.9-6.91-2.9-4.32,0-6.85,1.38-8.37,6.1l-5.18,17.83-7.25-10.4a5.27,5.27,0,0,0-3.73-1.48,5.09,5.09,0,0,0-5.14,5.14,4.59,4.59,0,0,0,.42,2.24L189,160.66c1.14,1.63,2.71,3.08,4.84,3.08a5.15,5.15,0,0,0,4.74-3.15h0l3.86-13.3,17.31,17.31v53.94a8.61,8.61,0,1,0,17.21,0V152.2a4.28,4.28,0,0,0-1.21-3Z"/><path d="M500.54,261.06H446.93V63.14H588v47.69H500.54v25.7H576v47.69H500.54ZM464,244h19.41V167.12h75.49V153.63H483.44V93.73h87.45V80.24H464Z"/><path d="M690.08,264.14c-29.18,0-52.82-9.16-70.28-27.21s-26.22-42.78-26.22-73.72c0-19.52,3-36.29,9-49.82A94.21,94.21,0,0,1,621.1,86.08a79.38,79.38,0,0,1,26.21-18.21c12.24-5.18,26.47-7.81,42.27-7.81,28.92,0,52.5,9.22,70.1,27.39s26.39,43.31,26.39,74.9c0,31.33-8.81,56.38-26.19,74.44S718.93,264.14,690.08,264.14Zm-.5-187c-13.49,0-25.49,2.18-35.64,6.48A62.32,62.32,0,0,0,633.36,98a76.83,76.83,0,0,0-15.16,22.32c-5,11.31-7.52,25.75-7.52,42.89,0,26.35,7.2,47.16,21.4,61.84s33.29,22,58,22c24.36,0,43.16-7.24,57.48-22.11S769,189.11,769,162.35c0-27-7.26-48.2-21.59-63S714,77.15,689.58,77.15ZM690,232.94c-17,0-31.28-6.3-42.38-18.7-10.86-12.13-16.36-29.71-16.36-52.26,0-22.87,5.38-40.5,16-52.38C658.05,97.43,672.44,91.26,690,91.26s31.84,6.11,42.59,18.16c10.48,11.77,15.79,29.28,15.79,52.06,0,23-5.44,40.81-16.16,52.86C721.19,226.68,707,232.94,690,232.94Zm0-124.58c-12.61,0-22.42,4.13-30,12.62-7.72,8.66-11.64,22.45-11.64,41,0,18.21,4,32,12,40.86,7.83,8.75,17.52,13,29.64,13S711.7,211.63,719.4,203c7.85-8.83,11.83-22.79,11.83-41.5,0-18.46-3.85-32.15-11.46-40.69C712.32,112.43,702.56,108.36,690,108.36Z"/><path d="M891.78,261.06H838.17V110.83H784.52V63.14H945.31v47.69H891.78ZM855.27,244h19.42V93.73h53.53V80.24H801.62V93.73h53.65Z"/><path d="M1036.3,264.14c-29.17,0-52.82-9.16-70.28-27.21s-26.21-42.78-26.21-73.72c0-19.52,3-36.29,9-49.82a94.24,94.24,0,0,1,18.53-27.31,79.18,79.18,0,0,1,26.21-18.21c12.23-5.18,26.47-7.81,42.27-7.81,28.92,0,52.5,9.22,70.09,27.39s26.4,43.31,26.4,74.9c0,31.33-8.82,56.38-26.2,74.44S1065.15,264.14,1036.3,264.14Zm-.49-187c-13.5,0-25.49,2.18-35.65,6.48A62.18,62.18,0,0,0,979.59,98a77.06,77.06,0,0,0-15.17,22.32c-5,11.31-7.52,25.75-7.52,42.89,0,26.35,7.2,47.16,21.4,61.84s33.29,22,58,22c24.36,0,43.17-7.24,57.49-22.11s21.41-35.83,21.41-62.59c0-27-7.26-48.2-21.58-63S1060.26,77.15,1035.81,77.15Zm.37,155.79c-17,0-31.29-6.3-42.39-18.7-10.85-12.13-16.36-29.71-16.36-52.26,0-22.87,5.38-40.5,16-52.38,10.86-12.17,25.25-18.34,42.77-18.34s31.84,6.11,42.58,18.16c10.48,11.77,15.79,29.28,15.79,52.06,0,23-5.44,40.81-16.16,52.86C1067.41,226.68,1053.21,232.94,1036.18,232.94Zm0-124.58c-12.61,0-22.43,4.13-30,12.62-7.72,8.66-11.64,22.45-11.64,41,0,18.21,4,32,12,40.86,7.83,8.75,17.52,13,29.65,13s21.74-4.21,29.44-12.86c7.86-8.83,11.84-22.79,11.84-41.5,0-18.46-3.86-32.15-11.46-40.69C1058.54,112.43,1048.78,108.36,1036.18,108.36Z"/><text class="cls-1" transform="translate(1134.73 252.51)">Graphic</text><text class="cls-2" transform="translate(426.97 263.91) rotate(-90)">2019</text></svg>