<?xml version="1.0" encoding="utf-8"?>
<svg id="svg5693" viewBox="0 0 167.31 87.571" version="1.1" xmlns="http://www.w3.org/2000/svg">
  <defs id="defs3">
    <filter id="filter5631" color-interpolation-filters="sRGB">
      <feGaussianBlur id="feGaussianBlur5633" stdDeviation="0.91741141"/>
    </filter>
    <filter id="filter5639" color-interpolation-filters="sRGB">
      <feGaussianBlur id="feGaussianBlur5641" stdDeviation="0.97828876"/>
    </filter>
    <linearGradient id="linearGradient6431" y2="288.28" gradientUnits="userSpaceOnUse" y1="225.8" gradientTransform="translate(179.89 286.29)" x2="119.22" x1="194.29">
      <stop id="stop5314" style="stop-color:#ffffff" offset="0"/>
      <stop id="stop5316" style="stop-color:#ffffff;stop-opacity:0" offset="1"/>
    </linearGradient>
  </defs>
  <g id="layer1" transform="translate(-266.35 -488.58)" style="">
    <path id="path5635" style="filter: url('#filter5639'); fill: rgb(177, 177, 177);" d="m280.71 490.92c0.0688 0.47077 0.125 0.94753 0.125 1.4375 0 5.457-4.418 9.875-9.875 9.875-0.12419 0-0.25189-0.0267-0.375-0.0312v1.2188c1.661 1.0012 2.7812 2.8274 2.7812 4.9062s-1.1202 3.9051-2.7812 4.9062v2.1875c1.661 1.0012 2.7812 2.8274 2.7812 4.9062s-1.1202 3.9051-2.7812 4.9062v2.1875c1.661 1.0012 2.7812 2.8274 2.7812 4.9062s-1.1202 3.9051-2.7812 4.9062v2.1875c1.661 1.0012 2.7812 2.8274 2.7812 4.9062s-1.1202 3.9051-2.7812 4.9062v2.1875c1.661 1.0012 2.7812 2.8274 2.7812 4.9062s-1.1202 3.9051-2.7812 4.9062v1.2812c0.12311-0.005 0.25081-0.0312 0.375-0.0312 5.457 0 9.875 4.418 9.875 9.875 0 0.48997-0.0562 0.96673-0.125 1.4375h140.44c-0.0693-0.47077-0.0937-0.94753-0.0937-1.4375 0-5.457 4.4493-9.875 9.9062-9.875 0.11745 0 0.2273 0.0272 0.34375 0.0312v-1.2188c-1.7151-0.98785-2.875-2.8493-2.875-4.9688 0-2.1194 1.1599-3.9809 2.875-4.9688v-2.0625c-1.7151-0.98785-2.875-2.8493-2.875-4.9688 0-2.1194 1.1599-3.9809 2.875-4.9688v-2.0625c-1.7151-0.98785-2.875-2.8493-2.875-4.9688 0-2.1194 1.1599-3.9809 2.875-4.9688v-2.0625c-1.7151-0.98785-2.875-2.8493-2.875-4.9688 0-2.1194 1.1599-3.9809 2.875-4.9688v-2.0625c-1.7151-0.98785-2.875-2.8493-2.875-4.9688 0-2.1194 1.1599-3.9809 2.875-4.9688v-1.1562c-0.11645 0.004-0.2263 0.0312-0.34375 0.0312-5.457 0-9.9062-4.418-9.9062-9.875 0-0.48997 0.0245-0.96673 0.0937-1.4375h-140.44z"/>
    <path id="path5608" style="fill: rgb(164, 0, 0);" d="m278.24 488.8c0.0688 0.47077 0.125 0.94753 0.125 1.4375 0 5.457-4.418 9.875-9.875 9.875-0.12419 0-0.25189-0.0267-0.375-0.0312v1.2188c1.661 1.0012 2.7812 2.8274 2.7812 4.9062s-1.1202 3.9051-2.7812 4.9062v2.1875c1.661 1.0012 2.7812 2.8274 2.7812 4.9062s-1.1202 3.9051-2.7812 4.9062v2.1875c1.661 1.0012 2.7812 2.8274 2.7812 4.9062s-1.1202 3.9051-2.7812 4.9062v2.1875c1.661 1.0012 2.7812 2.8274 2.7812 4.9062s-1.1202 3.9051-2.7812 4.9062v2.1875c1.661 1.0012 2.7812 2.8274 2.7812 4.9062s-1.1202 3.9051-2.7812 4.9062v1.2812c0.12311-0.005 0.25081-0.0312 0.375-0.0312 5.457 0 9.875 4.418 9.875 9.875 0 0.48997-0.0562 0.96673-0.125 1.4375h140.44c-0.0692-0.47077-0.0937-0.94753-0.0937-1.4375 0-5.457 4.4493-9.875 9.9062-9.875 0.11745 0 0.2273 0.0272 0.34375 0.0312v-1.2188c-1.7151-0.98785-2.875-2.8493-2.875-4.9688 0-2.1194 1.1599-3.9809 2.875-4.9688v-2.0625c-1.7151-0.98785-2.875-2.8493-2.875-4.9688 0-2.1194 1.1599-3.9809 2.875-4.9688v-2.0625c-1.7151-0.98785-2.875-2.8493-2.875-4.9688 0-2.1194 1.1599-3.9809 2.875-4.9688v-2.0625c-1.7151-0.98785-2.875-2.8493-2.875-4.9688 0-2.1194 1.1599-3.9809 2.875-4.9688v-2.0625c-1.7151-0.98785-2.875-2.8493-2.875-4.9688 0-2.1194 1.1599-3.9809 2.875-4.9688v-1.1562c-0.11645 0.004-0.2263 0.0312-0.34375 0.0312-5.457 0-9.9062-4.418-9.9062-9.875 0-0.48997 0.0245-0.96673 0.0937-1.4375h-140.44z"/>
    <path id="rect3008" style="fill: rgb(204, 0, 0);" d="m276.47 488.8c0.0688 0.47077 0.125 0.94753 0.125 1.4375 0 5.457-4.418 9.875-9.875 9.875-0.12419 0-0.25189-0.0267-0.375-0.0312v1.2188c1.661 1.0012 2.7812 2.8274 2.7812 4.9062s-1.1202 3.9051-2.7812 4.9062v2.1875c1.661 1.0012 2.7812 2.8274 2.7812 4.9062s-1.1202 3.9051-2.7812 4.9062v2.1875c1.661 1.0012 2.7812 2.8274 2.7812 4.9062s-1.1202 3.9051-2.7812 4.9062v2.1875c1.661 1.0012 2.7812 2.8274 2.7812 4.9062s-1.1202 3.9051-2.7812 4.9062v2.1875c1.661 1.0012 2.7812 2.8274 2.7812 4.9062s-1.1202 3.9051-2.7812 4.9062v1.2812c0.12311-0.005 0.25081-0.0312 0.375-0.0312 5.457 0 9.875 4.418 9.875 9.875 0 0.48997-0.0562 0.96673-0.125 1.4375h140.44c-0.0693-0.47077-0.0937-0.94753-0.0937-1.4375 0-5.457 4.4493-9.875 9.9062-9.875 0.11745 0 0.2273 0.0272 0.34375 0.0312v-1.2188c-1.7151-0.98785-2.875-2.8493-2.875-4.9688 0-2.1194 1.1599-3.9809 2.875-4.9688v-2.0625c-1.7151-0.98785-2.875-2.8493-2.875-4.9688 0-2.1194 1.1599-3.9809 2.875-4.9688v-2.0625c-1.7151-0.98785-2.875-2.8493-2.875-4.9688 0-2.1194 1.1599-3.9809 2.875-4.9688v-2.0625c-1.7151-0.98785-2.875-2.8493-2.875-4.9688 0-2.1194 1.1599-3.9809 2.875-4.9688v-2.0625c-1.7151-0.98785-2.875-2.8493-2.875-4.9688 0-2.1194 1.1599-3.9809 2.875-4.9688v-1.1562c-0.11645 0.004-0.2263 0.0312-0.34375 0.0312-5.457 0-9.9062-4.418-9.9062-9.875 0-0.48997 0.0245-0.96673 0.0937-1.4375h-140.44z"/>
    <path id="path5483" style="opacity: 0.44082; filter: url('#filter5631'); fill: rgb(164, 0, 0);" d="m407.69 494.93c-2.2876 0.0383-4.6064 1.9792-5.1875 6.3438-2.778 6.343-9.6207-1.8943-11.156-0.875-0.35437 0.23522-0.42395 0.95315-0.0937 2.4688 1.3695 1.7489 2.0231 2.9698 2.125 3.7812-0.23576-0.0511-0.44711-0.0659-0.59375 0.0312-0.24541 0.1629-0.34657 0.58069-0.28125 1.3125-0.4845 0.17291-1.17 0.18414-1.9375 0.15625-0.79517 0.95221-2.0601 1.9019-2.9375 2.9062 0.7618 0.78352 1.1087 1.9663 1.2812 3.4375 4.7434-0.56071 4.9617 3.4627 4.9375 8.4062-1.9782 0.97672-4.2089 0.30992-5.2188-1.5625 1.9768-1.7584 3.9531-3.4068 0.375-5.8125 0.058 0.95375 0.0987 1.9576 0.0937 3.0312-2.2197 1.096-4.7916 0.1079-5.5625-2.3125 0.0476-0.97057-0.0541-1.7291-0.25-2.3438-0.12496 0.034-0.26489 0.0791-0.375 0.125-0.43456 2.3034 1.3483 5.4014 2.8438 8.2812-0.55519 0.87427-1.8092 1.407-4.1562 1.5 2.6689 2.0274 4.4884 5.0847 6.375 7.8125 1.0274 1.1404 0.80524 2.5342-0.0937 3.1875-0.002 0.004-0.0295-0.004-0.0312 0-0.004 0.003 0.004 0.0283 0 0.0312-0.20943 0.43461-0.51914 0.90457-0.90625 1.4062-0.75022 2.4269 0.8021 4.6937 3.25 5.0625 0.61775-0.87817 1.1589-1.7154 1.6562-2.5312 1.5621 4.0187-0.99799 4.2175-3.625 4.5312-0.0253 0.22194-0.0112 0.4418 0 0.65625 0.22888 0.21229 0.4671 0.43342 0.65625 0.6875-0.13601 0.0625-0.31202 0.17042-0.46875 0.28125 0.44922 1.3594 1.6337 2.4175 3.2188 2.6562 2.8443-4.0434 4.9633-7.4688 0.75-9.7188 0.699-1.306 1.0838-2.4842 0.90625-3.5625 1.5926-0.3975 3.5867-0.36494 4.8125-0.96875-1.7215-2.471-3.7819-3.2156-5.3438-2.7188-0.60506 0.1925-1.1345 0.57538-1.5312 1.0938-0.52586-0.30612-1.1442-0.6123-1.9062-0.875-0.0141-5.9504 11.732 0.0719 7.5625-8.6562-0.71686-1.2981-1.0234-2.4924-1.0312-3.5312 0.47466-0.38404 0.92261-0.9311 1.2812-1.75 0.0728-0.54654 0.15822-1.0598 0.28125-1.5312 1.6655-1.089 4.3164-0.55455 6.375 2.7188 2.8767 1.807 3.5402 0.36358 3.6562-1.5938-0.26402-0.43597-0.45605-0.92772-0.53125-1.4688-0.62284-0.60342-1.0582-1.4013-1.1562-2.3438 1.9684-0.68739 3.9042-1.2952 3.4688-3.2812-0.12673-0.17855-0.25633-0.37043-0.40625-0.5625-0.12585-0.14367-0.19991-0.29451-0.3125-0.4375 0.14028 0.0212 0.2426 0.0381 0.375 0.0625-0.20031-0.41987-0.46461-0.88213-0.84375-1.4062-0.0377 0.19143-0.10075 0.37241-0.0937 0.59375-0.73467-1.168-1.0058-2.2719-0.96875-3.25-0.11997 0.30026-0.16945 0.61146-0.15625 1-1.6792-2.6696-1.082-5.0916 0.59375-6.0625 1.3458-0.77979 3.3748-0.5802 5.4688 1.1875-0.37083-3.5604-2.7707-5.6343-5.1875-5.5938zm-24.406 18.969c-0.12348-0.38736-0.26572-0.70001-0.46875-0.96875 0.15659 0.31994 0.30259 0.64578 0.46875 0.96875zm-74.875-18.219c-0.11994-0.002-0.25664 0.0131-0.375 0.0312-1.657 0.25446-3.1213 1.8997-3.25 4.6562 1.6895-2.6112 5.4815 0.0348 7.875-0.125-0.64982-2.9406-2.2729-4.3954-3.9062-4.5312-0.12063-0.0101-0.22381-0.0292-0.34375-0.0312zm33 3.6875c-0.0592-0.009-0.13099 0.0203-0.1875 0.0312-0.41727 0.0824-0.75878 0.72298-1.0312 2.25 0.56369 2.0109 0.69558 3.2918 0.53125 4.0938 1.3331 1.5616 2.4886 2.5459 4.3438-0.125 0.19652 0.28202 0.36658 0.60646 0.53125 0.9375 3.2837-1.0982 6.2619 1.65 5.875 5.6562 2.3271-2.3878 4.9137-6.5115 7.375-4.25 0.15687 0.74858 0.14359 1.7062 0 2.75-2.1196-0.96341-4.506-1.3753-6.9062 1.5625-0.216 0.26437-0.40576 0.51362-0.5625 0.75-0.13117 0.63851-0.34301 1.3205-0.65625 2 0.0563 0.63486 0.43455 1.1126 1.0312 1.4688 0.26873-0.27543 0.55135-0.27133 0.875 0.21875 0.66162-0.0591 1.3729 0.005 2.1875 0.1875 2.5018 0.56209 3.3815 1.5363 3.625 2.625 1.5096-0.0959 2.7164 0.29268 3.0625 1.8438-0.24777 0.58386-0.64498 1.2049-1.1875 1.8438 1.0912-0.23947 2.2279-0.65796 3.3438-1.1875-1.9705-2.3611-5.8735-5.5269-0.375-7.0938 3.6484-1.0396 5.3734 0.65452 6.5625 2.6562 0.71421-0.7746 1.2637-1.5459 1.5625-2.25-1.3138-5.8881-14.834 5.089-11.469-5.0625 1.0514-1.6799 1.5006-3.3205 1.5-4.75-4.3698 1.6228-3.2924-2.0396-4-5.1875-1.9771-0.2476-4.3426 0.90498-6.2188 4.1562-4.8301 4.6553-7.9758-4.8526-9.8125-5.125zm71.5 1.625c-0.28254 0.17522-0.59718 0.35563-0.9375 0.5 0.30791 0.12363 0.61849 0.27893 0.9375 0.46875 0.0153-0.33412 0.0166-0.65519 0-0.96875zm-108.12 0.3125c0.0107 0.18168 0.0101 0.34143 0.0312 0.53125 0.29979 5.485-2.3233 4.6395-5.0625 3.875-1.0284 1.8622-0.39162 4.1147 1.5 5.25 4.5211-2.877 8.0206-5.4063 3.5312-9.6562zm24.531 1.125c-0.71917 1.1037-0.87057 2.6947-0.8125 4.4688-1.4898 1.3288-2.4501 2.9462-1.4375 5.375 0.39208 0.12864 0.83259 0.27856 1.2812 0.4375 1.2651-2.0385 2.6476-3.9522 2.125-5.6875 0.42235-1.7462 0.99721-1.8998 1.7188-1.2188 0.64579-0.55138 1.3003-1.0741 1.9688-1.4062-1.7946-1.0319-3.5859-1.9743-4.8438-1.9688zm94.156 0.1875c-0.41743 0.01-0.85565 0.1558-1.3125 0.34375-0.68095 0.28014-1.3751 0.68991-2.0938 1.1875 1.557 0.71166 3.1908 1.3848 4.9375 1.2812 0.18922-0.65348 0.30699-1.2472 0.3125-1.7812-0.51852-0.74101-1.148-1.0471-1.8438-1.0312zm-10.438 1.125c-1.6987 0.71605-3.9287 1.1848-4.75 2.5938 1.523 0.35865 2.453 0.97872 2.9688 1.7812 0.0344-0.75143 0.23434-1.5872 0.6875-2.5938 0.34675-0.77019 0.71001-1.3382 1.0938-1.7812zm-29.844 3.7188c-0.36874 0.008-0.68891 0.07-1 0.125-0.46581 0.85007-0.5465 1.7813 0.21875 2.875 0.77552-0.2198 1.456-0.3258 2.0625-0.375 0.0294-0.65212 0.23841-1.2776 0.625-1.7812 0.19792-0.25786 0.43605-0.46298 0.71875-0.65625-0.92749-0.10759-1.8406-0.20408-2.625-0.1875zm-95.438 0.5625c-0.98065-0.0107-2.0315 0.45779-3.1875 1.5938-1.4538 1.4286-1.5616 2.5506-0.96875 3.5625 1.9597-0.0215 3.7159-0.68305 4.4062-3.375 0.1754-0.68391 0.24259-1.247 0.25-1.7188-0.17012-0.029-0.32669-0.0606-0.5-0.0625zm125.06 3.5938c0.26797 1.7828-0.63323 4.1218-1.7188 6.7188-0.53804 0.0364-1.0265-0.0119-1.5-0.15625 0.45261 0.16449 1.1656 0.85772 2.3125 2.3125 0.19949 0.3115 0.40971 0.56757 0.625 0.8125 2.4065-1.7194 5.1243-4.0935 6.9062-2.5625-0.54082-3.7956-4.3946-5.0615-6.625-7.125zm-5.3438 4.9375c0.0475 0.73861 0.0205 1.5183-0.125 2.375 0.17162 2.4156 0.72842 3.492 1.5312 3.7812 0.11621-2.1048-0.38044-4.7547 0.59375-4.5625-0.84197-0.2862-1.5375-0.86088-2-1.5938zm-102.56 0.65625c-0.98443 0.20064-1.6744 1.4508-0.3125 4.3438 3.8709-2.0987 2.2661-4.2278 0.75-4.3438-0.1474-0.0113-0.29687-0.0287-0.4375 0zm28.969 1.5312c-0.77563 0.0358-0.78601 3.8354-2.875 3.6562-0.0875 0.19129-0.17642 0.37257-0.28125 0.53125-0.089-0.23661-0.1983-0.46114-0.3125-0.6875-0.56697-0.21143-1.2466-0.63947-2.0938-1.4375-0.0224-0.0211-0.0406-0.0414-0.0625-0.0625-0.58004 0.54786-1.1586 1.4217-1.6875 2.9062-0.60318 1.6931-0.53177 2.7402-0.125 3.4375 0.95075-0.67691 2.363-1.0633 4.2188-0.9375-0.0926 0.41697-0.29224 0.86665-0.53125 1.3125 0.78468-0.23906 1.715-0.35565 2.8125-0.28125-0.33884 1.5261-1.9619 3.2995-2.5 5 0.33108 0.0817 0.892 0.38395 1.625 0.8125 0.0962-0.0155 0.18858-0.0225 0.28125-0.0312-0.0167-0.12118-0.026-0.24005-0.0312-0.375-0.34755-8.9053 6.7464-2.6918 3.25-11.062-0.87409-2.0927-1.3474-2.7969-1.6875-2.7812zm-52 6.125c-0.89696 0-1.6363 0.79661-2.2188 3.5938-0.71631 3.44-0.0271 3.7411 1.1562 3.3438 0.30614-1.2948 1.6202-2.3024 3-3.4062-0.51987-1.036-0.64731-2.1048-0.40625-3.0625-0.54912-0.2535-1.0737-0.46875-1.5312-0.46875zm62 2.9062c-2.0597 0.0662-4.2962 4.3361-1.125 3.5625 1.1062-0.59246 2.4342-2.2982 1.5312-3.5312-0.13416-0.0356-0.26894-0.0358-0.40625-0.0312zm-21.906 2.0938c0.0254 0.55051 0.0444 1.1078 0.0937 1.6562-0.34101-0.13817-0.72691-0.31171-1.1562-0.5625-0.20132-0.1176-0.36017-0.25068-0.53125-0.375-0.20087 0.16357-0.40586 0.36636-0.625 0.59375-5.3699 5.5722 1.1478 11.313-6.1562 14.219-1.1042 0.43928-1.8842 0.54854-2.4375 0.4375-0.12251 2.5741-1.7791 6.1944 1.5312 7.1562 0.46646-0.65739 0.93332-1.1752 1.375-1.5938-0.38583-0.52656-0.57925-1.1465-0.59375-1.7812-0.0375-1.6386 1.2383-3.3868 4.0938-4.3438 0.2346 1.3462-0.33965 3.2349-0.40625 4.875 1.0847 0.13295 2.0996 0.83684 3.1562 1.875 1.837-1.8732 3.4782-1.7942 5.0938-0.71875 0.0197-0.26021 0.0494-0.53537 0.0937-0.8125 0.33776-2.1096 1.1944-2.732 2.25-2.6875-0.17722-1.3656-0.0804-2.8563 0.625-4.5938 0.005-0.0135 0.0258-0.0179 0.0312-0.0312-0.63504-0.40123-1.2053-1.2091-1.625-2.75-0.41415-1.5206-0.44427-2.594-0.28125-3.375 0.03 0.005 0.0634 0.0263 0.0937 0.0312 3.9034 0.57963 4.0789-1.0047 3.75-2.5312-0.50633-0.21725-0.9401-0.46462-1.3125-0.75-3.5052 4.2037-4.0309-4.0801-7.0625-3.9375zm-32.562 5.9688c-1.0584 0.5874-2.0876 1.1562-3.125 1.3438-2.2638 4.9494-13.462 1.841-9.5 8.9062 4.5676 8.1453 8.5955-7.5309 13.844-0.0312 1.7229 2.4619 1.4682 4.6554 0.65625 6.6562-0.003 0.0215 0.002 0.0408 0 0.0625-0.0388 0.34594-0.059 0.72199-0.0625 1.125-0.18057 0.0609-0.36613 0.0941-0.53125 0.125-1.8231 3.4907-4.5343 6.376 0.25 9.0312 7.0352 3.9045 7.4041-5.3531 13.125-6.3438 0.12917-1.2887-0.0705-2.1577-0.5625-2.7188-3.1842 0.62497-6.6619 1.4712-8.75 0.40625-0.0135-0.11858-0.003-0.24553 0-0.375-0.35667 0.0686-0.71143 0.096-1.0625 0.15625 0.315-0.1192 0.65604-0.14625 1.0625-0.15625 0.64491-0.0151 1.3945 0.0875 2.3125 0.40625 2.5395-0.0589 4.2085-2.2491 3.7812-4.6875-1.0289-0.30682-2.0059-0.53736-2.9375-0.75 3.315-2.7569 4.3374-0.42284 5.4688 1.9688 0.89437-0.19011 1.6287-0.66669 2.1562-1.3125-0.72776-0.90827-0.63446-1.6875-0.1875-2.1562 0.099-0.10391 0.21632-0.1751 0.34375-0.25 0.2154-0.12673 0.46202-0.18656 0.71875-0.21875-0.007-0.20339-0.0259-0.41642-0.0625-0.625-4.7371-1.4139-8.6412-2.3346-9.4375 2.375-1.4604-0.2483-2.6901-0.22938-3.6562 0.28125-0.71699-1.1245-1.2787-2.6253-1.9688-3.6562 0.24266-0.72864 0.43585-1.3927 0.40625-1.9062-0.72063-0.14318-1.1002-0.34368-1.1875-0.625-0.052-0.16806 0.01-0.38188 0.125-0.59375-0.8074-0.13046-2.1552 0.17775-4.2188 1-1.5473-0.10948-2.2177-0.40627-2.3438-0.8125-0.38495-1.2407 4.3522-3.7126 5.3438-6.625zm126.44 0.125c-0.11994-0.002-0.22539 0.0131-0.34375 0.0312-1.657 0.25446-3.1213 1.8997-3.25 4.6562 0.21119-0.3264 0.4487-0.57214 0.71875-0.75-0.58931 0.78149-0.99813 1.8404-1.0625 3.2188 0.12031-0.18594 0.26589-0.30196 0.40625-0.4375 0.0117 0.64677-0.0495 1.1972-0.125 1.6562-0.0947-0.0957-0.17822-0.18372-0.28125-0.28125 0.0107 0.18168 0.0101 0.34143 0.0312 0.53125 0.0133 0.24329-0.002 0.46856 0 0.6875-0.77741 1.8788-2.7106 1.2792-4.7188 0.71875-0.45808 0.82947-0.57265 1.7427-0.40625 2.5938-0.93328 1.837-0.28702 4.015 1.5625 5.125 3.3908-2.1578 6.1978-4.1108 5.5-6.75-0.002-0.009 0.002-0.0222 0-0.0312 0.78472-1.3601 0.66247-2.8697-0.96875-4.6875 1.9113-0.88783 4.885 0.88286 6.875 0.75-0.23735-1.0741-0.61239-1.9392-1.0625-2.625 0.49508 0.10394 0.98008 0.1847 1.4062 0.15625-0.64982-2.9406-2.2729-4.3954-3.9062-4.5312-0.12063-0.01-0.25506-0.0292-0.375-0.0312zm-111.66 0.46875c-4.6328-0.0911-1.5939 4.5269-1.125 6.9062 0.95991 0.23331 2.1216 0.26916 3.4688-0.0312 1.4728-0.23841 2.4786-0.221 3.1875 0-0.27111-2.6075-0.0832-6.3206-4.8125-6.8125-0.26165-0.0272-0.4944-0.0581-0.71875-0.0625zm34.281 0.34375c0.41502 0.85967 0.78619 1.8429 1.125 2.9375 0.24107-1.9998-0.2669-2.7212-1.125-2.9375zm35.25 2.2812c-1.7871 1.183-3.3353 2.6942-4.8438 4.2188 1.0399 0.40188 1.9735 1.2255 2.5 2.2812 2.0579 2.7437 4.7349-1.3655 4.0625-3.5625-0.41896-1.0074-1.0894-1.9663-1.7188-2.9375zm-33.719 1c-0.0999 0.032-0.19371 0.065-0.28125 0.125 0.0939 0.31257 0.18791 0.6148 0.28125 0.9375-1.4577 1.3446-3.4837 1.4628-4.9688 0.375 0.17996 0.66978 0.54738 1.4357 1.1875 2.375 0.72741 0.35541 1.3922 0.45593 1.9688-0.0937 0.0647 0.65476 0.35018 1.1275 0.9375 1.125 0.76432-1.4317 3.8263-2.9614 3.5625-3.875-0.9346-0.20668-1.7222-0.86823-2.6875-0.96875zm90.875 0.75c-0.32939 0.0441-0.65876 0.11059-0.96875 0.1875 0.056 0.0931 0.0942 0.1837 0.15625 0.28125 0.3239-0.153 0.57319-0.31331 0.8125-0.46875zm-52.938 4.4688c-1.0776 0.0415-5.3515 0.3092-3.0312 1.9062 2.5521 0.85096 0.18179 2.5705-0.125 3.9062 0.28498 0.25202 0.58845 0.48663 0.90625 0.6875 0.76251-0.15353 1.5795 0.11065 2.3125 1.0625 0.009 0.0128 0.0224 0.0187 0.0312 0.0312 0.88061 0.31029 1.7743 0.59151 2.6562 0.875 0.74774-0.35376 1.2699-1.1915 1.125-2.3438 0.003-0.86987 0.0217-1.7644 0.0312-2.6562-2.0696-0.0983-1.4161-3.7186-3.9062-3.4688zm18.938 0.15625c-0.1957 0.001-0.38177 0.0349-0.5625 0.0937-1.1245 0.36603-1.7303 1.8179 0.96875 4.2812 2.4315-2.9887 0.96366-4.3839-0.40625-4.375zm-46.906 1.5938c-0.28883 1.1603-0.83578 2.6674-0.71875 3.6562-0.48059 0.33762-1.0103 0.1254-1.4375-0.375-0.71049 3.485-9.9892-2.0103-8.375 5.125 0.10344 0.45727 0.23065 0.88521 0.375 1.2812 1.6582-0.997 2.8619-3.2925 5-2.625 2.4449 1.1454 3.1881 4.4819 1.8125 6.7188-0.25203 0.61531-0.60801 1.223-0.96875 1.8438 2.0238 1.2846 3.7058 2.6224 3.5 5.7812 0.75846-0.0739 1.4737-0.38789 2.0312-1 1.703-1.6405 2.9643-4.3937 5.7188-4.2812 2.6738-0.30369 4.7788 2.113 3.6875 4.6562 0.25626 1.2553 0.69381-1.901 2-0.9375 0.96979 0.29041 2.9286 0.73856 1.2812-0.59375-1.4171-2.0612-3.4291-3.9612-4.0312-6.4375 1.0149-0.92094 3.9521-0.9997 2.3438-3.1562-0.21075-0.56023-0.20206-0.91137-0.0625-1.0938-0.8739-0.54226-1.9082-0.8071-2.9688-0.625-2.8126 0.88721-1.3123 5.0965-3.7812 6.375-1.9422 0.58513-5.1838-1.4187-3.8438-3.5938 0.94423-0.89879 1.7176-1.9322 2.375-3.0312-0.63377-0.44054-1.2553-0.93044-1.5938-1.1562-1.6297-1.3489 1.6424-3.445-0.25-5.1875-0.59751-0.75977-1.3153-1.1669-2.0938-1.3438zm16.125 0.21875c-0.21132 0.97055-0.25616 1.9997-0.28125 3.0312 1.5388 0.0725 4.0938 0.20502 2.625-1.3438-0.47164-0.6337-1.468-1.1375-2.3438-1.6875zm-9.875 1.1562c-0.17414 0.0146-0.34984 0.0528-0.53125 0.0937-1.8834 0.66552-1.214 2.1953-0.53125 3.7188 0.21011-0.52102 0.39573-1.0626 0.5625-1.5938 0.28681-0.73356 0.68045-1.4853 1.1562-2.1875-0.21499-0.0228-0.42718-0.0504-0.65625-0.0312zm42.125 3.3125c-0.1957 0.001-0.38177 0.0349-0.5625 0.0937-1.1245 0.36604-1.7303 1.8179 0.96875 4.2812 2.4315-2.9887 0.96366-4.3839-0.40625-4.375zm-76.562 1.0312c-0.23199 0.001-0.48151 0.0395-0.75 0.0625 0.64304 0.70676 1.2998 1.4414 1.9688 2.2812-0.36698 0.79041-0.95905 1.405-1.625 1.8125 2.1006 3.0243 2.4586 7.4635 6.5312 3.5938 0.36166-0.34364 0.67096-0.70437 0.9375-1.0312-0.41156-0.6569-0.91599-1.3138-1.4062-2-0.46416 0.2121-0.95633 0.35756-1.4688 0.375-0.0622-0.18158-0.1033-0.38315-0.125-0.53125-0.29703 0.11004-0.57565 0.27758-0.84375 0.4375-0.20894-0.0496-0.45039-0.1008-0.65625-0.1875 0.41058-2.4461 0.91739-4.8306-2.5625-4.8125zm-7.7188 1.4688c-0.31992 0.0204-0.65415 0.11498-1 0.28125-2.1314 0.70614-4.3896 1.3588-6.4688 2.3125 0.0543 0.0111 0.10117 0.0189 0.15625 0.0312 8.4144 1.8905-1.3901 8.5241 7.2188 8.0312 0.21337-0.0122 0.41033-0.0425 0.59375-0.0625 0.29058-0.46825 0.86012-0.96012 1.7812-1.4688 0.0419-0.0231 0.0836-0.0405 0.125-0.0625-0.87115-2.3215-7.8554-6.5239-1.25-8.4062 0.14117-0.0402 0.27073-0.0616 0.40625-0.0937-0.38623-0.3685-0.93946-0.60229-1.5625-0.5625zm59.219 2.1875c-1.1883 1.6004-0.90149 3.9618-1.2812 5.875-0.1456 1.1082-0.82993 1.9372-1.75 2.4375 0.407 0.0955 0.85858-0.0432 1.4062-0.65625 0.78511-1.3596 2.5756-1.6232 3.4375-1.4688-0.0689-2.1657-1.6663-4.0256-1.8125-6.1875zm39.188 1.0938c-0.81356 0.12878-1.4712 0.96782-1 2.7812-0.62462 0.51754-0.82968 1.7378 0.25 4.0312 2.6612-1.4429 2.7381-2.88 2.0312-3.6875 1.5372-1.6276 0.27785-3.032-0.9375-3.125-0.12033-0.009-0.22753-0.0184-0.34375 0z"/>
    <path id="path5612" style="opacity: 0.71429; fill: rgb(255, 255, 255);" d="m276.83 488.79c0.0688 0.24251 0.125 0.4881 0.125 0.74049 0 0.12763-0.0134 0.26109-0.0312 0.38635h140.28c-0.0181-0.12544-0.0312-0.25853-0.0312-0.38635 0-0.25239 0.0246-0.49798 0.0937-0.74049h-140.44z"/>
    <path id="path5619" d="m276.83 570.79c0.0688 0.24251 0.125 0.4881 0.125 0.74049 0 0.12763-0.0134 0.26109-0.0312 0.38635h140.28c-0.0181-0.12544-0.0312-0.25853-0.0312-0.38635 0-0.25239 0.0246-0.49798 0.0937-0.74049h-140.44z" style="opacity: 0.71429; fill: rgb(164, 0, 0);"/>
    <g id="g5828" transform="translate(2.1429 77.143)" style="">
      <g id="g5380" style="opacity:.56735" transform="translate(183.34 118.59)">
        <path id="rect3033" style="opacity:.8;block-progression:tb;text-indent:0;color:#000000;text-transform:none;fill:#000000" d="m101.88 302.59v0.40625 63 0.40625h0.40625l0.40625-0.8125v-62.188h122.22l0.8125-0.40625v-0.40625h-0.40625-123.03z"/>
        <path id="path5378" d="m225.72 366.41v-0.40625-63-0.40625h-0.40625l-0.40625 0.8125v62.188h-122.22l-0.8125 0.40625v0.40625h0.40625 123.03z" style="opacity:.8;block-progression:tb;text-indent:0;color:#000000;text-transform:none;fill:#ffffff"/>
      </g>
      <g id="g5822" style="opacity:.56735" transform="matrix(-.98994 0 0 -.98994 509.28 784.23)">
        <path id="path5824" d="m101.88 302.59v0.40625 63 0.40625h0.40625l0.40625-0.8125v-62.188h122.22l0.8125-0.40625v-0.40625h-0.40625-123.03z" style="opacity:.8;block-progression:tb;text-indent:0;color:#000000;text-transform:none;fill:#000000"/>
        <path id="path5826" style="opacity:.8;block-progression:tb;text-indent:0;color:#000000;text-transform:none;fill:#ffffff" d="m225.72 366.41v-0.40625-63-0.40625h-0.40625l-0.40625 0.8125v62.188h-122.22l-0.8125 0.40625v0.40625h0.40625 123.03z"/>
      </g>
    </g>
    <path id="path5281" style="opacity: 0.18261; fill: url('#linearGradient6431');" d="M 299.51 490.95 L 284.822 505.606 C 275.372 515.047 269.818 520.984 269.166 522.325 C 268.609 523.469 267.816 524.547 267.416 524.7 C 266.358 525.106 266.526 526.51 267.791 527.856 L 268.885 529.044 L 287.791 510.138 L 306.697 491.263 L 303.103 491.106 L 299.509 490.95 L 299.51 490.95 Z M 313.666 490.95 L 290.197 514.45 C 277.278 527.364 266.697 538.056 266.697 538.231 C 266.697 538.406 267.316 539.346 268.072 540.294 C 268.828 541.241 269.593 542.012 269.76 542.012 C 269.926 542.012 281.458 530.593 295.416 516.637 L 320.791 491.262 L 317.228 491.106 L 313.666 490.95 L 313.666 490.95 Z M 327.76 490.95 L 297.51 521.2 C 273.623 545.072 267.388 551.543 267.916 551.981 C 268.284 552.286 268.859 553.196 269.197 554.012 C 269.535 554.828 270.002 555.512 270.228 555.512 C 270.455 555.512 285.091 541.056 302.759 523.387 L 334.884 491.262 L 331.322 491.106 L 327.759 490.95 L 327.76 490.95 Z M 356.01 490.95 L 316.604 530.419 C 278.79 568.294 277.198 569.98 277.198 571.731 L 277.198 573.575 L 279.229 573.419 C 281.207 573.269 282.489 572.049 322.229 532.263 L 363.167 491.263 L 359.605 491.106 L 356.011 490.95 L 356.01 490.95 Z M 370.104 490.95 L 337.045 524.11 L 329.416 531.762 C 307.026 554.21 288.697 572.791 288.697 573.043 C 288.697 573.296 290.155 573.512 291.947 573.512 L 295.197 573.512 L 336.228 532.387 L 377.259 491.262 L 373.697 491.105 L 370.103 490.949 L 370.104 490.95 Z M 384.198 490.95 L 343.448 531.825 C 321.035 554.296 302.698 572.847 302.698 573.075 C 302.698 573.304 304.195 573.513 306.011 573.513 L 309.292 573.513 L 350.323 532.388 L 391.354 491.263 L 387.76 491.106 L 384.197 490.95 L 384.198 490.95 Z M 285.104 491.013 L 277.417 498.669 C 270.427 505.61 269.698 506.473 269.698 508.044 C 269.698 509.759 268.621 511.864 267.354 512.638 C 266.537 513.136 266.502 514.598 267.291 515.388 C 267.752 515.848 269.686 514.129 275.823 507.763 C 280.187 503.235 285.81 497.608 288.323 495.263 L 292.885 491.013 L 289.01 491.013 L 285.104 491.013 L 285.104 491.013 Z M 341.792 491.013 L 306.23 526.607 C 286.674 546.19 270.751 562.375 270.824 562.576 C 270.896 562.776 271.737 563.489 272.699 564.169 C 273.661 564.85 274.539 565.427 274.636 565.451 C 274.734 565.474 291.538 548.751 312.011 528.263 L 349.261 491.013 L 345.511 491.013 L 341.793 491.013 L 341.792 491.013 Z M 398.417 491.013 L 357.698 531.732 C 335.294 554.137 316.886 572.701 316.792 572.982 C 316.687 573.296 317.905 573.513 319.98 573.513 L 323.355 573.513 L 364.605 532.263 L 405.855 491.013 L 402.136 491.013 L 398.417 491.013 L 398.417 491.013 Z M 412.542 491.013 L 371.636 531.982 C 349.126 554.517 330.698 573.081 330.698 573.232 C 330.698 573.383 332.244 573.513 334.136 573.513 L 337.573 573.513 L 377.385 533.638 C 411.159 499.831 417.197 493.575 417.197 492.388 C 417.197 491.056 417.095 491.013 414.885 491.013 L 412.541 491.013 L 412.542 491.013 Z M 419.261 498.45 L 382.23 535.512 C 361.863 555.892 345.199 572.788 345.199 573.043 C 345.199 573.298 346.649 573.512 348.418 573.512 L 351.636 573.512 L 382.042 543.137 C 418.8 506.431 423.636 501.435 422.792 501.137 C 422.438 501.012 421.497 500.371 420.699 499.699 L 419.261 498.449 L 419.261 498.45 Z M 424.198 508.075 C 423.435 508.33 359.198 572.535 359.198 573.044 C 359.198 573.289 360.66 573.513 362.448 573.513 L 365.698 573.513 L 396.136 543.169 L 426.605 512.857 L 425.637 511.294 C 425.115 510.439 424.7 509.33 424.699 508.825 C 424.698 508.321 424.474 507.984 424.199 508.075 L 424.198 508.075 Z M 424.542 521.419 L 398.886 547.075 C 384.777 561.196 373.209 572.931 373.198 573.137 C 373.188 573.343 374.716 573.512 376.573 573.512 L 379.948 573.512 L 403.636 549.824 C 416.663 536.795 427.243 525.939 427.136 525.699 C 427.029 525.459 426.387 524.382 425.73 523.324 L 424.542 521.418 L 424.542 521.419 Z M 425.042 534.763 L 406.386 553.763 C 396.124 564.207 387.708 572.932 387.698 573.138 C 387.689 573.344 389.227 573.513 391.104 573.513 L 394.511 573.513 L 409.73 557.794 C 424.763 542.254 427.698 539.011 427.667 538.169 C 427.657 537.932 427.075 537.082 426.355 536.263 L 425.042 534.763 L 425.042 534.763 Z M 426.355 548.638 C 425.455 548.628 423.323 550.762 413.98 560.326 C 407.358 567.104 401.884 572.837 401.792 573.076 C 401.7 573.315 403.182 573.514 405.104 573.514 L 408.604 573.514 L 416.573 565.232 C 423.326 558.244 424.629 556.677 424.885 555.076 C 425.058 553.997 425.73 552.688 426.448 552.014 C 427.929 550.622 427.976 550.159 426.854 548.92 C 426.705 548.755 426.562 548.641 426.354 548.639 L 426.355 548.638 Z"/>
    <path id="path6700" style="fill: rgb(32, 74, 135);" d="m371.12 489.69c-0.6925 1.3141-1.2871 2.6786-1.8125 4.0625 0.40107 0.0802 0.64601 0.16025 0.78125 0.28125 0.51597-1.3588 1.1257-2.6493 1.8125-3.9375-0.0401-0.13172-0.0575-0.27046-0.0625-0.40625h-0.71875zm8.6875 0c-2.7702 3.7918-4.5872 8.1751-5.25 12.75 0.11703 0.45063 0.27941 0.86052 0.59375 1.0625 0.17837-1.6363 0.51426-3.2303 0.96875-4.8125-0.0708-0.41183 0.0114-0.89546 0.34375-1.375 0.0171 0.01 0.0453 0.0215 0.0625 0.0312 0.12074-0.35086 0.20791-0.68588 0.34375-1.0312 0.15974-1.2744 0.77423-2.6576 1.625-3.375 0.62546-1.122 1.3105-2.2145 2.0938-3.25h-0.78125zm31.688 0c-0.40222 0.34108-0.81884 0.63803-1.2188 0.8125-0.22969 0.37684-0.18773 0.87537 0.21875 1.25l2.0312 3.3125c0.70908 0.0117 1.2475 0.16665 1.3125 0.8125-0.12469 0.34494-0.20366 0.6272-0.28125 0.875l0.40625 0.6875c0.25424-0.2783 0.56443-0.57602 0.84375-0.90625-0.392 0.0364-0.73818-0.23777-0.9375-0.90625l-2.8125-4.625 0.1875-0.15625 0.1875-0.0937c0.14876-0.12266 0.30163-0.25188 0.46875-0.34375 0.82336-0.45262 1.8253-0.48632 2.625-0.0625 0.0149-0.21826 0.0309-0.44118 0.0625-0.65625h-1.1562c0.0113 0.0782 0.0114 0.15377 0.0312 0.21875-0.0573-0.0699-0.12487-0.14647-0.1875-0.21875h-1.7812zm-3.5312 0.0937-0.78125 0.4375c-0.14238 0.24601-0.13629 0.47479-0.0625 0.6875 0.53932 0.13695 0.88448 0.51118 0.8125 1.3438l1.3125 2.1562c0.46055 0.19934 0.69278 0.6363 0.8125 1.1562-0.0383-0.0105-0.0842-0.0217-0.125-0.0312l0.59375 0.96875c0.47736 0.43379 0.7727 0.92055 0.90625 1.4688 0.0166 0.0194 0.0135 0.0433 0.0312 0.0625 0.2151 0.23296 0.49129 0.47654 0.84375 0.6875-0.003 0.006 0.0339-0.006 0.0312 0-0.051 0.1152-0.15202 0.24306-0.25 0.34375l0.8125 1.3125c0.13791 0.0798 0.24916 0.12378 0.375 0.125-0.66295-0.48373-1.0448-1.0628-0.75-1.6562 0.19765 0.1089 0.41017 0.2119 0.625 0.3125l-3.9375-6.4375c0.026 0.14198 0.0604 0.29222 0.0625 0.40625-0.12655-0.26609-0.23391-0.56681-0.34375-0.875l-0.9375-1.5c0.0999-0.0552 0.21312-0.12946 0.3125-0.1875-0.0829-0.20845-0.1539-0.43197-0.25-0.625 0.0739 0.0501 0.15203 0.11153 0.21875 0.1875-0.1111-0.10155-0.20437-0.21184-0.3125-0.34375zm0.3125 0.34375c0.077 0.0877 0.14852 0.19788 0.21875 0.3125 0.0384-0.0231 0.0865-0.039 0.125-0.0625-0.10588-0.0713-0.23265-0.14845-0.34375-0.25zm-1.5938 2.2188c-0.11557 0.0276-0.21607 0.0508-0.34375 0.0937-0.048 0.006-0.10808 0.0224-0.15625 0.0312-0.0372 0.0138-0.0556 0.0472-0.0937 0.0625-0.0887 0.0194-0.19337 0.007-0.28125 0.0312l1.875 3.0625c0.12834-0.22443 0.30208-0.43866 0.53125-0.6875 0.0395 0.0241 0.0544 0.0671 0.0937 0.0937l-1.625-2.6875zm-3.25 0.0937c-0.35089 0.60627 0.16293 1.0866 0.4375 1.5938l1.1875 1.9062c0.18893-0.24221 0.38234-0.48777 0.59375-0.6875l-0.875-1.4062c-0.16522-0.0845-0.33973-0.19225-0.53125-0.4375-0.1154 0.0835-0.21062 0.13524-0.3125 0.21875-0.0776-0.12856-0.1564-0.26989-0.25-0.4375 0.0873-0.28694 0.0503-0.5545-0.25-0.75zm-33.625 2.375c-0.31702 0.19162-0.72832 0.27809-1 0.1875-3.2766 9.7206-2.3711 20.792 3.4062 30.219 0.34105 0.55646 0.69617 1.0934 1.0625 1.625 0.40702-0.25339 0.66156-0.39349 0.8125-0.40625-0.38611-0.55443-0.76749-1.1042-1.125-1.6875-5.738-9.3623-6.5507-20.337-3.1562-29.938zm28.594 0.90625c-0.32445 0.0254-0.60844 0.24371-0.90625 0.4375 0.24516 0.1503 0.48532 0.29988 0.75 0.4375 0.0738-0.23527 0.12696-0.51572 0.15625-0.875zm7.5938 0.0937c-0.139 0.14641-0.46764 0.26103-0.78125 0.40625l3.1875 5.1875c0.25984-0.31755 0.41057-0.59579 0.46875-0.875l-0.8125-1.3438c-0.50535-0.0533-0.89903-0.35758-0.5625-0.9375l-1.5-2.4375zm9.75 0.1875c-0.0242 0.20514-0.0671 0.50099-0.21875 0.96875 0.0157 0.0668 0.0503 0.12356 0.0625 0.1875 0.20358-0.14622 0.40417-0.32765 0.59375-0.5-0.14426-0.2125-0.27859-0.4324-0.40625-0.65625-0.00054 0.005-0.0308-0.005-0.0312 0zm-16.625 0.21875c-0.10254 0.2582-0.34292 0.38585-0.65625 0.46875 0.37402 0.17716 0.76718 0.31633 1.1562 0.34375l-0.5-0.8125zm-2.625 0.65625c0.0179 0.018 0.0132 0.0765 0.0312 0.0937-0.14214 0.011-0.25075 0.0111-0.375 0.0312-0.27136 0.54391 0.16243 0.97988 0.4375 1.4375 0.0459-0.042 0.10517-0.086 0.15625-0.125 0.18289-0.31447 0.25872-0.55036 0.3125-0.75l-0.0625-0.0937c0.0365-0.0114 0.0869-0.0435 0.125-0.0625 0.0498-0.42814-0.23751-0.5648-0.625-0.53125zm0.25 0.21875c0.11282 0.0889 0.20163 0.16561 0.3125 0.21875-0.0893-0.0242-0.15912-0.036-0.25-0.0625-0.021-0.05-0.0429-0.10568-0.0625-0.15625zm20.062 0.34375c-0.33695 0.24373-0.67582 0.47347-1.0312 0.65625l-0.15625 0.125c-0.0897 0.6103-0.41825 1.0103-0.84375 1.3438-0.15876-0.16977-0.34898-0.31444-0.53125-0.5l-0.5625 0.3125c0.042 0.0173 0.0827 0.0456 0.125 0.0625-0.0646 0.43307-0.20308 0.80433-0.4375 1.0625 0.3869-0.0463 0.7632-0.39789 1.125-0.59375 0.38839-0.25718 0.80311-0.50462 1.2188-0.75 0.15167-0.44918 0.43294-0.84589 0.84375-1.1562 0.14523-0.10971 0.30142-0.19021 0.46875-0.28125-0.0791-0.0879-0.14285-0.19051-0.21875-0.28125zm-16.219 1.2188c-0.0597 0.15869-0.0972 0.34642-0.125 0.59375-0.15712-0.0361-0.37826-0.0663-0.5625-0.0937l0.90625 1.4688c0.0584-0.044 0.13998-0.12223 0.1875-0.15625 0.53298-0.3818 0.42457-0.0618 0.25 0.40625-0.10251 0.003-0.21169-0.006-0.3125 0l2.0625 3.3125c0.0635 0.0368 0.1268 0.0752 0.1875 0.0937-0.0939-0.3751-0.10576-0.78739 0.0937-1.25l-0.5-0.84375c-0.38364-0.14773-0.90678-0.69128-1.3438-1.8438 0.11751 0.0485 0.20778 0.10674 0.3125 0.15625l-1.1562-1.8438zm-3.7188 0.25 5.0312 8.2188c0.60627 0.35088 1.0866-0.19417 1.5938-0.46875l0.78125-0.46875c-0.16341-0.23743-0.32573-0.47845-0.5-0.71875l-1.375 0.84375-1.625-2.6875c-0.19425 0.10698-0.36773 0.22659-0.53125 0.375 0.13009-0.19402 0.26792-0.3627 0.40625-0.5625l-2.75-4.4688c-0.40032-0.0209-0.70416-0.0429-1.0312-0.0625zm-5.0938 0.8125c-0.11454 0.0144-0.23816 0.0512-0.34375 0.0937-0.0147 0.0918-0.0105 0.21302 0 0.3125-0.0552-0.0752-0.10629-0.14276-0.15625-0.21875-0.0654 0.0349-0.12444 0.0529-0.1875 0.0937-0.31532 0.20433-0.60689 0.48499-0.9375 0.625l-0.96875 0.5625c-0.40204 0.67855 0.10994 1.4364 0.15625 2.1562l1.4062 6.75c0.19953-0.40671 0.31312-1.0458 0.5-1.7188l-1.3438-6.5938 1.9375-1.1875 2.5938 2.125c0.20207-0.10825 0.3711-0.35839 0.5-0.6875l-2.8125-2.2812c-0.12065-0.0292-0.22921-0.0457-0.34375-0.0312zm19.625 0.34375c-0.0538 0.36202-0.11058 0.72666-0.1875 1.0938-0.63789 0.34212-1.1206 0.78889-1.25 1.5312 0.27415-0.12245 0.51206-0.35427 0.78125-0.5 0.49045-0.35073 1.2463-0.49177 1.2188-1.2188l-0.5625-0.90625zm10.5 0.625c-0.0605 0.0788-0.13722 0.1506-0.25 0.21875 0.26344 0.92989 1.4414-0.32569 1.5 0.9375 0.0219 0.17514 0.0844 0.3156 0.15625 0.46875 0.13266 0.0915 0.18965 0.20402 0.1875 0.3125 0.0673 0.0921 0.13759 0.17241 0.21875 0.25 0.30951-0.28433 0.66531-0.53923 1.0312-0.75v-0.0937c-0.37053-0.24756-0.68158-0.6303-0.84375-1.0312-0.68449-0.0346-1.3585-0.14574-2-0.3125zm-0.59375 0.3125c-0.31207 0.0962-0.64381 0.49086-0.6875 1-0.16151-0.39487-0.30584-0.47176-0.46875-0.40625 0.006 0.0279-0.007 0.0657 0 0.0937-0.0231-0.0176-0.0394-0.0455-0.0625-0.0625-0.18615 0.10342-0.39431 0.35843-0.6875 0.46875 0.0389 0.0347 0.0564 0.0853 0.0937 0.125 0.26646-0.00087 0.54432-0.00065 0.84375-0.0312 0.29308 0.71702 0.85271 1.3825 1.7188 1.8438-0.47253-0.76633-1.3988-1.6302-0.21875-2.2188 0.0627-0.67867-0.21918-0.90869-0.53125-0.8125zm-14.031 0.0937c-0.11411 0.0165-0.23174 0.0858-0.34375 0.1875l-2.3125 1.4375c0.0371 0.0332 0.0555 0.027 0.0937 0.0625 0.30984 0.10119 0.59913 0.24831 0.84375 0.375l1.7812-1.125c0.40719 0.5396 0.74055 1.0784-0.125 1.3125l-0.28125 0.1875c0.0907 0.21736-0.026 0.45143-0.1875 0.625 0.0826 0.1163 0.18748 0.21989 0.25 0.34375l1.375-0.84375c-0.3763-0.25697-0.58389-0.77517-0.4375-1.75 0.0787-0.0703 0.11972-0.15062 0.1875-0.21875-0.18444-0.34043-0.50142-0.64332-0.84375-0.59375zm-15.25 1.3125-0.6875 0.4375 0.1875 0.8125c0.0184-0.14785 0.0695-0.24244 0.125-0.3125 0.34523-0.43536 1.3624 0.47414 2.5312 0.96875 0.003-0.007 0.0291-0.0251 0.0312-0.0312l-2.1875-1.875zm3.625 0.21875-0.3125 0.28125c0.0395 0.18941 0.0224 0.36755 0 0.5625l5 4.0938c-0.50669 0.15386-1.0659 1.0096-1.5312 0.625-0.5379-0.40355-1.0179-0.96912-1.5938-1.2812-0.69715-0.13472-1.207 0.59292-1.8125 0.84375-0.79596 0.53443-1.7181 0.93172-2.4375 1.5312-0.33535 0.65439 0.20261 1.4072 0.25 2.0938 0.4032 0.69224-0.53996 0.80278-0.9375 1.1562-0.3114-0.13143-0.29303-1.0856-0.46875-1.5312l-0.125-0.6875-0.34375 0.34375c0.12003 0.47521 0.0371 0.96059-0.15625 1.4688l0.25 1.25c0.5576 0.47925 1.0339 0.046 1.5312-0.28125 0.53286-0.34673 1.4949-0.69183 1.1562-1.5l-0.40625-1.8125 3.3125-2c0.24866 0.18965 0.47822 0.41508 0.71875 0.625 0.0234-0.12825 0.0236-0.28385 0.0625-0.375 0.58642 0.26864 0.97036 0.58935 1.1875 0.84375 0.32271-0.30127 0.63717-0.57892 0.96875-0.8125 0.008-0.005 0.0237-0.0262 0.0312-0.0312 0.29511 0.08 0.55474 0.19815 0.84375 0.28125 0.42845-0.23332 0.74133-0.76589 0.375-1.1562l-1.5312-1.25c-0.65984 0.2926-0.80733-0.0229-0.75-0.59375l-3.2812-2.6875zm22.219 0.40625c-0.24747 0.0335-0.48809 0.14296-0.78125 0.375-0.15189 0.009-0.29703 0.0805-0.40625 0.15625-0.10538 0.0731-0.18267 0.16913-0.25 0.28125 0.33794 0.0359 0.66016 0.0604 0.96875 0.15625 0.009 0.027 0.022 0.0666 0.0312 0.0937 0.50284-0.25367 1.4248 0.14274 0.40625 0.53125-0.063 0.0287-0.10079 0.0602-0.15625 0.0937 0.10624 0.28357 0.19514 0.55691 0.3125 0.8125 0.0754-0.11864 0.17215-0.19037 0.28125-0.28125 0.25956-0.0997 0.45094-0.1112 0.5625-0.0625 0.43616-0.56579 0.53933-1.2191 0-1.8125-0.0516-0.0567-0.15545-0.10078-0.21875-0.15625-0.0225-0.014-0.0397-0.0499-0.0625-0.0625-0.20976-0.11568-0.44003-0.15844-0.6875-0.125zm-32.25 0.5c-0.19465 0.0149-0.37396 0.10118-0.5625 0.21875-0.1257 0.0786-0.24922 0.19558-0.375 0.28125-0.5033 0.37167-1.5122 0.63217-1.25 1.4375l0.0312 0.15625c0.33757-0.36614 0.47636-0.5973 0.46875-0.75 0.27374 0.0842 0.49461 0.14837 0.65625 0.25 0.14844-0.1035 0.28907-0.23801 0.4375-0.34375 0.26389-0.18797 0.48664-0.28105 0.53125 0.0312l0.9375 4.75c0.0208 0.003 0.0416-0.003 0.0625 0 0.0198 0.024 0.0427 0.0713 0.0625 0.0937 0.39056 0.16941 0.63668 0.21912 0.8125 0.21875l-0.46875-2.375c-0.30226-0.50434-0.44331-1.0266-0.3125-1.5938l-0.40625-2.125c-0.20867-0.18512-0.43035-0.26488-0.625-0.25zm-10.531 0.34375c-0.34398 0.44737-0.62483 0.99285-0.8125 1.5938-0.0453 1.2076 0.0147 2.4134 0.125 3.625 0.10583 0.0665 0.19503 0.14975 0.28125 0.21875 0.23553 0.18851 0.3906 0.355 0.5 0.5625-0.19675-1.6334-0.24736-3.2791-0.15625-4.9062-0.002-0.008-0.0298 0.008-0.0312 0-0.0693-0.37364-0.0192-0.72933 0.0937-1.0938zm21.625 0.125c0.0142 0.0192-0.0134 0.0438 0 0.0625-0.0677 0.0491-0.13936 0.0835-0.21875 0.125 0.072-0.0603 0.15009-0.11078 0.21875-0.1875zm8.8438 0.375-0.84375 0.5c-0.21655 0.42276-0.2865 0.83931-0.25 1.1875l1.875-1.1562c-0.0858-0.033-0.15796-0.0636-0.25-0.0937-0.18355-0.17074-0.36723-0.31794-0.53125-0.4375zm-13.344 0.21875c-0.14596 0.0226-0.31123 0.0439-0.46875 0.0937l0.28125 1.3125c0.068-0.0275 0.14789-0.0684 0.21875-0.0937 0.16617-0.0724 0.30031-0.11414 0.4375-0.1875 0.0358-0.0815 0.0686-0.17896 0.0937-0.25l-0.1875-0.875c-0.10933-0.0304-0.22904-0.0226-0.375 0zm22 0.71875c-0.0447 0.0244-0.0837 0.0516-0.125 0.0937-0.2065 0.21107-0.39017 0.63773-0.4375 1.0312 0.0279-0.0249 0.0611-0.0709 0.0937-0.0937 0.99796-0.35058 1.4852 0.58868 1.5 1.375 0.0918-0.17761 0.22404-0.30969 0.34375-0.375 0.11433-0.0624 0.25499-0.0622 0.375 0.0312 0.006 0.005-0.006 0.026 0 0.0312-0.009 0.31867 0.0274 0.62958 0.125 0.96875-0.28381-0.19864-0.58237-0.32459-0.875-0.4375-0.0732 0.67103-0.49929 1.1061-1.375 0.25-0.23033-0.26548-0.40983-0.65869-0.4375-1.0312-0.20589 0.23364-0.36544 0.4995-0.46875 0.78125-0.13421 0.0527-0.27263 0.11608-0.40625 0.1875 0.10031 0.0716 0.18157 0.12568 0.28125 0.1875-0.0202 0.12435-0.003 0.24087 0 0.375l1.7188 2.7812c0.60123-0.14249 0.757-0.37074 0.75-0.65625-0.024-0.007-0.0386 0.007-0.0625 0-0.0382-0.17206-0.1208-0.36562-0.25-0.53125-0.31523 0.26089-0.71502 0.35226-0.96875-0.125 0.19373-0.0389 0.43499-0.10817 0.65625-0.15625-0.0434-0.036-0.0762-0.0587-0.125-0.0937 0.11592-0.0362 0.22812-0.0706 0.34375-0.0937-0.11429-0.20579-0.21637-0.42682-0.25-0.625 0.19347 0.0412 0.36911 0.0491 0.53125 0.0312-0.0529-0.0738-0.0722-0.14352-0.0937-0.25 0.25204 0.005 0.50267-0.0358 0.78125-0.0625 0.74424-0.6573 0.76193-2.1705-0.0312-2.9375-0.2726 0.0576-0.55927 0.12824-0.8125 0.21875-0.15333-0.52835-0.32516-0.78958-0.5-0.875-0.008-0.00026-0.0232 0.0315-0.0312 0.0312-0.0867-0.002-0.164-0.0426-0.25-0.0312zm5.3125 0.28125c-0.2779-0.0249-0.49857 0.0183-0.625 0.15625-0.014 0.0153-0.0196 0.0134-0.0312 0.0312-0.0297 0.0756-0.0194 0.17869-0.0625 0.25-0.0126 0.13767-0.002 0.31392 0.0625 0.53125-0.2156 0.13296-0.44305 0.27988-0.71875 0.4375-0.008 0.004-0.0238 0.0272-0.0312 0.0312-0.31878-0.0728-0.64798-0.20895-0.96875-0.34375 0.34146 0.73915 1.1416 1.1829 1.9375 0.25 0.11746-0.86399 1.456-0.55971 1.4062-1.125-0.35497-0.10672-0.69085-0.19386-0.96875-0.21875zm-2.0938 0.0312c-0.15267-0.006-0.30692 0.0247-0.4375 0.0625-0.0422 0.23569-0.0265 0.48944 0.0312 0.71875 0.33262-0.12178 0.65151-0.28618 0.9375-0.46875-0.0131-0.0691-0.0547-0.1323-0.0625-0.21875-0.17102-0.058-0.31608-0.0882-0.46875-0.0937zm-7.5312 0.3125-0.9375 0.59375c0.21933 1.3146 1.5414 0.57942 1.4062-0.0937-0.004-0.007 0.004-0.024 0-0.0312-0.0537-0.0872-0.12797-0.19042-0.15625-0.28125-0.0117-0.0112-0.0183-0.0204-0.0312-0.0312-0.0696-0.0587-0.1707-0.10845-0.28125-0.15625zm-15.062 0.0312-1.7188 1.0625-0.1875-0.96875c-0.0201 0.00015-0.0426-0.001-0.0625 0 0.0101 0.15129 0.0268 0.33042 0.0625 0.53125-0.25773-0.003-0.56363-0.0224-0.78125-0.0312l0.1875 0.8125c0.23851 0.0245 0.42471 0.0564 0.59375 0.15625 0.0234 0.18981 0.0689 0.34049 0.0937 0.46875 0.3216-0.0378 0.62665-0.29546 0.9375-0.5l1.8125-1.0938c-0.31477-0.11783-0.61282-0.27885-0.90625-0.4375-0.004-0.003-0.0273 0.002-0.0312 0zm-2.4062 0.125c-0.12736 0.0156-0.24334 0.0452-0.375 0.0625l0.0625 0.3125c0.0947-0.12549 0.19652-0.26489 0.3125-0.375zm19.938 0.34375c-0.11825 0.0371-0.20531 0.0477-0.28125 0.0937 0.12338 0.0763 0.26129 0.15092 0.40625 0.21875-0.22149 0.10681-0.41906 0.24721-0.625 0.375 0.0865 0.28132 0.36919 0.57819 0.5625 0.875 0.25189-0.37642 0.37116-0.82831 0.3125-1.4375-0.0956 0.007-0.23373-0.0387-0.375-0.125zm-27.844 0.0312c-0.23482 0.15599-0.51393 0.23698-0.78125 0.25l1.0312 4.6562c0.26665-0.0779 0.54712-0.22601 0.8125-0.375l-1.0625-4.5312zm23.594 0.5625-0.96875 0.59375c0.002 0.0199-0.002 0.0426 0 0.0625l1.5938 2.5938c0.0268-0.005 0.0678 0.003 0.0937 0 0.008-0.00087 0.0234-0.0306 0.0312-0.0312 0.023 0.005 0.0423 0.0251 0.0625 0.0312 0.29629 0.0886 0.28274 0.29974 0.15625 0.53125 0.12901 0.0519 0.25856 0.0952 0.40625 0.125-0.0309 0.11089-0.0797 0.23171-0.125 0.34375l0.6875 1.1562c1.3171-0.31219 0.7109-1.1817 0.1875-1.9062l-2.125-3.5zm2.7188 0.34375-0.96875 0.59375 2.0312 3.3438c1.3171-0.31219 0.71089-1.2129 0.1875-1.9375l-1.25-2zm-32.094 0.4375c-0.27393 0.012-0.54476 0.12796-0.78125 0.28125-0.31531 0.20434-0.57564 0.48499-0.90625 0.625l-0.78125 0.46875c-0.25287 0.69392 0.31768 0.99024 0.8125 1.3438l2.75 2.1875c0.0451-0.0789 0.11023-0.15736 0.1875-0.21875 0.15123-0.12014 0.34961-0.18437 0.59375-0.25l-3.3438-2.6562c0.5048-0.23574 1.0094-0.79628 1.5-0.84375l3.9062 3.2812c0.47941-0.01 0.90692 0.00065 1.25-0.0312l-4.9062-4.1562c-0.0965-0.0233-0.18994-0.0353-0.28125-0.0312zm-7.8125 0.25c0.0645 0.58444 0.0581 0.52643 0 0zm0.625 1.1875c0.002-0.0427 0.00015 0.20141-0.0312 0.875 0.0233-0.50291 0.0292-0.83234 0.0312-0.875zm3.7188 1.5938c-0.0463 0.0425-0.0786 0.0821-0.125 0.125-0.15541 0.0731-0.31333 0.1755-0.46875 0.25 0.39902 2.3751 1.096 4.7309 2.125 7 0.31581-0.16609 0.49652-0.24454 0.625-0.25-1.0446-2.3004-1.715-4.685-2.0938-7.0938-0.0119-0.006-0.05-0.0253-0.0625-0.0312zm30 0.3125c-0.058 0.18722-0.0986 0.39422-0.0937 0.59375 0.026-0.18331 0.0784-0.36098 0.0937-0.59375zm-17.562 0.15625c-0.27868 0.29081-0.16052 0.33715 0.0625 0.28125l-0.0625-0.28125zm21.156 0.8125c-0.0417 0.0544-0.0474 0.10097-0.0937 0.15625-0.62004 0.36997-0.76537 0.46443-0.96875 0.59375-0.06 0.10196-0.15555 0.16842-0.25 0.1875 0.0189 0.0208 0.0428 0.0109 0.0625 0.0312 0.22611-0.0317 0.6798-0.10741 1.2188-0.0937 0.10339-0.32401 0.0998-0.6387 0.0312-0.875zm-23.312 0.53125c-0.14294 0.007-0.30734 0.00015-0.46875 0.0312l0.0625 0.3125c0.12726 0.1383 0.23064 0.29064 0.25 0.4375-0.10249-0.1331-0.21975-0.28687-0.3125-0.46875l-0.21875-0.1875c-0.21393 0.0513-0.40965 0.0985-0.65625 0.1875 0.007 0.12493-0.005 0.25004 0 0.375l1.375 1.1562c0.74781-0.20631 0.72182-0.74862 0.46875-1.375l-0.0937-0.46875c-0.12269-0.009-0.26331-0.007-0.40625 0zm18.719 0.375c-0.35534 0.24808-0.71971 0.46405-1.0938 0.6875-0.0154 0.0741-0.008 0.14471-0.0312 0.21875 0.16854 0.53102 0.68968 0.48173 1.1562 0.21875 0.0656-0.3465 0.0735-0.72595-0.0312-1.125zm-3.125 0.34375c-0.24377 0.006-0.506 0.10916-0.71875 0.25-0.57421 0.51816-0.70106 1.2918-1.5312 0.96875-0.86814 0.68812 0.49402 1.5313 0.75 2.2812l0.875 1.4062c0.18695-0.0545 0.32104-0.12032 0.4375-0.1875-0.10215-0.0637-0.18073-0.13297-0.28125-0.21875-0.0453-0.0996 0.20823-0.29334 0.59375-0.53125-0.2566-0.82215-1.6869-1.9001-0.84375-2.75 0.43313-0.14235 0.75775 0.0237 1 0.3125-0.0341-0.38083-0.0352-0.81551-0.0625-1.0312 0.13147-0.0632 0.3618-0.0669 0.6875 0-0.0769-0.0934-0.15718-0.16682-0.21875-0.25-0.2055-0.16533-0.44373-0.25593-0.6875-0.25zm-19.688 0.3125c-0.11244-0.001-0.25117 0.003-0.375 0.0312l1.625 1.25c0.0119-0.59655-0.46294-1.2713-1.25-1.2812zm2.7812 1.4375c0.0123 0.38777 0.0593 0.76996 0.0937 1.1562l0.875 0.6875c0.45302-0.19408 0.86608-0.48576 1.1875-0.84375l-0.5 0.28125-1.6562-1.2812zm4.25 0.0625c-0.24882 0.32628-0.30975 0.59476-0.25 0.78125 0.22968-0.20584 0.36484-0.44964 0.25-0.78125zm14.438 0.65625c-0.10633 0.006-0.19373 0.0355-0.25 0.0625 0.0128 0.10106 0.0476 0.32655 0.0625 0.46875 0.20217-0.15321 0.37686-0.31804 0.5625-0.5-0.13378-0.0228-0.26867-0.0374-0.375-0.0312zm-5 0.28125c-0.43881 0.36021-0.69688 0.62058-0.75 0.71875 0.0212 0.007 0.0145 0.0213 0.0312 0.0312 0.15579-0.0351 0.57276-0.25952 1-0.59375-0.084-0.0517-0.17309-0.10726-0.28125-0.15625zm-30.75 0.6875c0.089 0.58124 0.0801 0.52353 0 0zm31.5 0.0312c-0.24927 0.12858-0.4853 0.27385-0.6875 0.4375-0.0949-0.00048-0.16859-0.006-0.28125 0-0.0668 0.11437-0.11735 0.22109-0.15625 0.3125-0.003 0.006-0.0291 0.0251-0.0312 0.0312-0.12595 0.0969-0.22073 0.2323-0.34375 0.34375 0.0761-0.14321 0.0663-0.30693-0.0625-0.40625-0.32465 0.39731-0.89202 0.63778-0.875-0.0937-0.1539 0.0154-0.26871 0.0213-0.46875 0.0625-0.005 1.0407 0.59795 1.0017 1.0312 0.71875-0.2291 0.22715-0.42721 0.48498-0.65625 0.71875-0.007-0.00087-0.0246 0.0009-0.0312 0-0.16892-0.0269-0.3459-0.0273-0.53125-0.0312 0.44975 0.84148 1.3272 1.4257 2.3125 1.125-0.15759-0.21367-0.29297-0.39942-0.5-0.5625 0.89096-0.14152 1.1649 0.0456 1.1562 0.28125 0.78665-0.7151 1.1206-2.5307-0.15625-1.4688 0.0296 1.1521-2.049 1.0956-1.3438 0.0937 0.82401-0.25049 1.8055-0.90888 1.625-1.5625zm-5.375 1.375c-0.13382 0.0136-0.25191 0.0197-0.375 0.0625 0.17179 0.11922 0.34666 0.22415 0.5625 0.3125-0.0663-0.12011-0.12674-0.23025-0.1875-0.375zm-15.75 0.0625c-0.0816 0.18482-0.23769 0.41191-0.4375 0.625 0.24567 0.50562 0.53378 1.0043 0.8125 1.5 0.24342-0.0323 0.46616-0.0746 0.71875-0.0937-0.38701-0.66845-0.76989-1.3414-1.0938-2.0312zm-9.0625 0.5625c0.0802 0.52353 0.089 0.58122 0 0zm26.344 0.125c-0.4253 0.23798-0.7302 0.26426-0.96875 0.0937-0.0598 0.0806-0.14733 0.15497-0.25 0.21875 0.58036 0.34165 0.77803 1.3151 0.5625 1.875 0.14317 0.00086 0.30064 0.0498 0.4375 0.125-0.25516 0.0619-0.4876 0.19825-0.6875 0.34375-0.015-0.0427-0.0434-0.0847-0.0625-0.125-0.23936 0.12315-0.59562 0.0248-1.0625-0.4375-0.33131-0.38796-0.57282-1.0192-0.34375-1.5-0.21215-0.085-0.39189-0.17368-0.5625-0.21875-0.12325 0.0751-0.30825 0.069-0.53125-0.0625-0.15185 0.0464-0.25842 0.0952-0.34375 0.15625-0.59729 0.42735 0.27405 1.2106 0.53125 1.7812l1.9375 3.125c1.658-0.35249 0.32382-1.476 0.1875-2.25 1.7664 0.25142 2.1576-1.9378 1.3125-3.125-0.005-0.007-0.0262 0.007-0.0312 0-0.0491 0.008-0.0748-0.0104-0.125 0zm-25.625 1.0312c-0.00022 0.0428 0.003 0.37155 0 0.875 0.003-0.67431 0-0.91774 0-0.875zm19.938 0.8125c-0.34389 0.0268-0.69064 0.13212-0.96875 0.34375-0.12249 0.0573-0.2145 0.11261-0.3125 0.1875-0.39709 0.30339-0.5813 0.75405-0.625 1.2188-0.00063 0.007 0.0006 0.0246 0 0.0312 0.28438-0.12987 0.63772-0.0726 1 0.0625-0.0508-0.31258 0.0253-0.61498 0.34375-0.84375 1.6325-0.84787 2.3949 2.8506 0.625 2.125-0.0594 0.42322-0.18007 0.84116-0.375 1.0938 0.44091-0.27693 0.99374-0.40052 1.5938-0.34375 1.217-0.84746 1.2436-3.0042-0.28125-3.6875-0.30752-0.16166-0.65611-0.21434-1-0.1875zm-9.25 1.5625c-0.2448 0.0238-0.45338 0.058-0.6875 0.0937 1.1328 1.6744 2.407 3.208 3.8125 4.5625 0.30316-0.1403 0.45947-0.38569 0.28125-0.6875-0.14778-0.14532-0.32383-0.28844-0.46875-0.4375-0.12628-0.0851-0.25586-0.15874-0.4375-0.25-0.0861 0.063-0.14904 0.12857-0.21875 0.1875-0.0207-0.22282-0.044-0.46149-0.0625-0.6875-0.67761-0.75178-1.3032-1.5684-1.9062-2.4062-0.008-0.006-0.0242-0.0254-0.0312-0.0312-0.12638-0.0987-0.20681-0.20098-0.28125-0.34375zm44.562 1.5c-0.19267 0.2346-0.36563 0.48909-0.5625 0.71875 0.18991 0.12338 0.38241 0.24071 0.5625 0.375 0.0964-0.1131 0.18691-0.22927 0.28125-0.34375v-0.5625c-0.0972-0.056-0.18772-0.126-0.28125-0.1875zm-2.4688 2.75c-1.3976 1.3303-2.9762 2.5449-4.6875 3.5938-1.0318 0.63235-2.0809 1.173-3.1562 1.6562 0.21106 0.14628 0.41736 0.28501 0.625 0.46875 0.97779-0.45574 1.9646-0.98534 2.9062-1.5625 0.81362-0.49864 1.5974-1.0296 2.3438-1.5938 0.002-0.1-0.0209-0.18728 0-0.3125 0.11542 0.0127 0.2178 0.044 0.3125 0.0625 0.58647-0.45667 1.1463-0.9431 1.6875-1.4375-0.01-0.28991-0.0253-0.56691-0.0312-0.875zm-47.75 0.0625c-0.0658 0.21625-0.25705 0.51682-0.5 0.78125 1.9711 2.7309 4.2779 5.1517 6.8125 7.1562 0.009-0.25326-0.006-0.49862-0.0312-0.71875 0.73201-0.22581 0.68216 0.46027 0.40625 1 1.7334 1.3316 3.5829 2.4845 5.5 3.4688 0.17947-0.0714 0.32927-0.19067 0.40625-0.40625 0.11546-0.0471 0.23009-0.13152 0.34375-0.1875-1.4657-0.72706-2.8895-1.5319-4.25-2.4688-0.13624 0.0912-0.2889 0.0668-0.1875-0.1875-1.671-1.169-3.2483-2.4969-4.7188-3.9688-0.009 0.0288-0.055 0.0652-0.0625 0.0937 0.0259 0.0577 0.0436 0.1033 0.0625 0.15625-0.73973-0.0475-1.3498-0.37258-1.4688-1.125 0.11643-0.0951 0.21127-0.24851 0.21875-0.4375-0.88644-0.9858-1.7487-2.0527-2.5312-3.1562zm3.7812 4.4688c-0.35218-0.35252-0.72372-0.69286-1.0625-1.0625 0.0867 1.1807 0.57998 1.3588 1.0625 1.0625zm5.6875-4.375c-0.17618 0.13487-0.35961 0.24801-0.5625 0.34375 1.257 1.1969 2.5736 2.2862 4 3.2188 0.0598-0.16657 0.14577-0.34437 0.25-0.53125 0.37514 0.28064 0.76862 0.45823 1.125 0.5625-1.7075-1.0154-3.3365-2.2063-4.8125-3.5938zm9 5.6562c-0.20111 0.16001-0.40113 0.33401-0.625 0.46875 0.63182 0.25486 1.2901 0.4786 1.9375 0.6875-0.13017-0.25686-0.1113-0.46532 0-0.6875-0.43965-0.14539-0.88017-0.30153-1.3125-0.46875zm19.75 0.15625c-0.24203 0.0902-0.47562 0.1646-0.71875 0.25 0.10238 0.0409 0.20772 0.0692 0.34375 0.125 0.11436 0.14501 0.20814 0.22413 0.3125 0.34375 0.35211-0.12219 0.6834-0.23418 1.0312-0.375-0.33478-0.13763-0.65837-0.24304-0.96875-0.34375zm-1.0625 0.34375c-0.0868 0.0289-0.16292 0.0662-0.25 0.0937-0.0143 0.18079-0.0238 0.40641 0.0312 0.6875 0.16741-0.0517 0.3328-0.13381 0.5-0.1875-0.10227-0.20104-0.21144-0.39412-0.28125-0.59375zm-2.4688 0.6875c-1.3534 0.3067-2.7276 0.49056-4.0938 0.59375 0.13953 0.20718 0.13787 0.44963 0.0625 0.6875 1.4636-0.10924 2.9275-0.31722 4.375-0.65625-0.12807-0.22224-0.22667-0.41266-0.34375-0.625zm-11.656 0.125c-0.0359 0.2219-0.0682 0.47015-0.15625 0.6875 2.2797 0.46325 4.6265 0.60557 6.9688 0.5-0.19831-0.30833-0.68315-0.23231-1.1875-0.125 0.0518-0.15443 0.11371-0.31964 0.1875-0.5-0.37122 0.004-0.7546 0.01-1.125 0 0.0588 0.21031 0.0988 0.41279 0.15625 0.625-0.45656 0.0279-0.8178-0.0853-0.9375-0.6875-1.3119-0.0745-2.6212-0.24022-3.9062-0.5zm25.969 1.0938c-0.70799 0.50873-1.4298 1.0044-2.1875 1.4688-0.16914 0.10366-0.36107 0.1808-0.53125 0.28125 1.3034 0.0607-1.4654 2.3161-2.625 1.4375-0.008 0.004-0.0231-0.004-0.0312 0-1.2687 0.60958-2.5374 1.1176-3.8438 1.5625-0.0766 0.0663-0.14931 0.093-0.25 0.0937-0.33701 0.11181-0.6914 0.21207-1.0312 0.3125-0.13102 0.25056-0.4185 0.26971-0.78125 0.21875-0.009 0.003-0.023 0.029-0.0312 0.0312-0.59445 0.15986-1.1847 0.30864-1.7812 0.4375-0.14292 1.1513-2.5726 1.2638-3.1562 0.5-0.0996 0.0121-0.21289 0.0199-0.3125 0.0312 0.12651 0.24479 0.26315 0.54264 0.4375 0.84375 4.9465-0.59849 9.8489-2.2573 14.375-5.0312 0.81419-0.499 1.6149-1.0106 2.375-1.5625-0.22612-0.19319-0.43118-0.39911-0.625-0.625zm-32.625 4.4375c-0.16436 0.28709-0.51398 0.45133-0.90625 0.5625 0.90372 0.35252 1.8542 0.65317 2.7812 0.9375 0.0303-0.0684 0.068-0.11727 0.0937-0.1875 1.3361 0.11046 1.5856 0.32099 1.4062 0.625 1.3206 0.3441 2.6476 0.6297 4 0.8125-0.89773-0.17049-1.8197-0.65308-2.125-1.2812-0.19498-0.0394-0.39947-0.051-0.59375-0.0937-0.0842-0.002-0.15575-0.0336-0.21875-0.0625-0.18748-0.0426-0.37573-0.0794-0.5625-0.125 0.0178 0.0754 0.0513 0.14254 0.0625 0.21875-0.19179-0.13512-0.42274-0.2803-0.65625-0.40625-0.0185-0.005-0.044-0.0263-0.0625-0.0312-1.0886-0.28884-2.1617-0.57727-3.2188-0.96875zm15.875 1.9688c-2.1363 0.23417-4.2522 0.28852-6.375 0.125-0.0941 0.52125-0.75059 0.71042-1.5 0.6875 2.7815 0.32632 5.6262 0.33333 8.4375 0-0.18843-0.2843-0.38904-0.53665-0.5625-0.8125z"/>
    <g transform="matrix(1, 0, 0, 1, -0.722105, -8)" style="">
      <g transform="matrix(1.1423, 0, 0, 1.1423, 285.254425, 579.224792)">
        <text style="fill: rgb(148, 1, 5); font-family: Gotham; font-size: 8.8px; white-space: pre;" x="9.791" y="-22.303">FOTOGRAPHIC 2023</text>
        <text style="fill: rgb(255, 255, 255); font-family: Gotham; font-size: 8.8px; white-space: pre;" x="10.035" y="-22.663">FOTOGRAPHIC 2023</text>
      </g>
      <g transform="matrix(0.998174, 0, 0, 0.920581, 287.192474, 581.663574)" style="">
        <text style="fill: rgb(148, 1, 5); font-family: Gotham; font-size: 7.87884px; white-space: pre;" x="9.791" y="-22.303">DANZA FESTIVAL PARETS</text>
        <text style="fill: rgb(255, 255, 255); font-family: Gotham; font-size: 7.87884px; white-space: pre;" x="10.035" y="-22.663">DANZA FESTIVAL PARETS</text>
      </g>
    </g>
    <g id="g6511" style="fill: rgb(255, 255, 255);" transform="matrix(1.1423, 0, 0, 1.1423, 285.347809, 567.820007)">
      <g style="" transform="matrix(0.875427, 0, 0, 0.875427, -249.120193, -500.586548)">
        <g transform="matrix(0.788342, 0, 0, 1.084682, 303.665619, 550.023682)" style="">
          <text style="fill: rgb(148, 1, 5); font-family: Gotham; font-size: 8.8px; white-space: pre;" x="9.791" y="-22.303">ENTRADA GRATUITA</text>
          <text style="fill: rgb(255, 255, 255); font-family: Gotham; font-size: 8.8px; white-space: pre;" x="10.035" y="-22.663">ENTRADA GRATUITA</text>
        </g>
        <g transform="matrix(0.682174, 0, 0, 0.774063, 304.968628, 548.69696)" style="">
          <text style="fill: rgb(148, 1, 5); font-family: Gotham; font-size: 8.8px; white-space: pre;" x="9.791" y="-22.303">CON REGISTRO PREVIO</text>
          <text style="fill: rgb(172, 172, 172); font-family: Gotham; font-size: 8.8px; white-space: pre;" x="10.035" y="-22.663">CON REGISTRO PREVIO </text>
        </g>
      </g>
      <path id="path6508" style="opacity:.95918" d="M 16.148 -49.331 L 14.425 -43.832 L 8.926 -44.133 L 13.631 -40.768 L 11.634 -35.625 L 16.285 -39.072 L 20.552 -35.598 L 18.72 -41.069 L 23.343 -44.051 L 17.571 -44.024 L 16.148 -49.331 Z M 95.812 -49.331 L 94.089 -43.832 L 88.59 -44.133 L 93.295 -40.768 L 91.298 -35.625 L 95.949 -39.072 L 100.216 -35.598 L 98.384 -41.069 L 103.007 -44.051 L 97.235 -44.024 L 95.812 -49.331 Z"/>
      <path id="path6504" style="fill:#2e3436" d="M 16.156 -49.343 L 14.433 -43.844 L 8.934 -44.145 L 13.639 -40.78 L 11.642 -35.637 L 12.654 -36.403 L 14.241 -40.452 L 9.535 -43.817 L 15.034 -43.516 L 16.484 -48.139 L 16.156 -49.343 L 16.156 -49.343 Z M 95.82 -49.343 L 94.096 -43.844 L 88.598 -44.145 L 93.303 -40.78 L 91.306 -35.637 L 92.318 -36.403 L 93.905 -40.452 L 89.199 -43.817 L 94.698 -43.516 L 96.148 -48.139 L 95.82 -49.343 L 95.82 -49.343 Z M 23.352 -44.063 L 18.099 -44.036 L 18.181 -43.708 L 22.832 -43.735 L 23.352 -44.063 L 23.352 -44.063 Z M 103.015 -44.063 L 97.762 -44.036 L 97.844 -43.708 L 102.495 -43.735 L 103.015 -44.063 L 103.015 -44.063 Z M 16.895 -38.756 L 16.785 -38.674 L 20.561 -35.61 L 20.478 -35.829 L 16.895 -38.756 L 16.895 -38.756 Z M 96.559 -38.756 L 96.449 -38.674 L 100.225 -35.61 L 100.143 -35.829 L 96.559 -38.756 L 96.559 -38.756 Z"/>
    </g>
  </g>
</svg>